<svg width="111" height="34" viewBox="0 0 111 34" fill="none" xmlns="http://www.w3.org/2000/svg">
    <path
        d="M0.408691 0.0983887H10.7364V2.37685H2.69763V15.5252H0.408691V0.0983887ZM3.99924 6.35762H10.7364V8.63608H3.99924V6.35762Z"
        fill="#161616" />
    <path
        d="M12.7319 8.3422C12.7319 7.59712 12.9139 6.91751 13.2793 6.30206C13.6446 5.68792 14.1344 5.19687 14.7498 4.83153C15.3639 4.46619 16.0449 4.28418 16.7899 4.28418H19.2413C19.9863 4.28418 20.666 4.4675 21.2814 4.83153C21.8955 5.19687 22.3866 5.68661 22.7519 6.30206C23.1173 6.9162 23.2993 7.59712 23.2993 8.3422V11.4666C23.2993 12.2117 23.1173 12.8913 22.7519 13.5067C22.3866 14.1209 21.8968 14.6119 21.2814 14.9773C20.666 15.3426 19.9863 15.5246 19.2413 15.5246H16.7899C16.0449 15.5246 15.3652 15.3426 14.7498 14.9773C14.1357 14.6119 13.6446 14.1222 13.2793 13.5067C12.9139 12.8926 12.7319 12.2117 12.7319 11.4666V8.3422ZM15.0209 11.4456C15.0209 11.938 15.195 12.3583 15.542 12.7093C15.889 13.0602 16.3054 13.2357 16.7899 13.2357H19.2413C19.7336 13.2357 20.1513 13.0602 20.4944 12.7093C20.8375 12.3583 21.0103 11.9367 21.0103 11.4456V8.36446C21.0103 7.87211 20.8388 7.45177 20.4944 7.10083C20.1513 6.7499 19.7336 6.57443 19.2413 6.57443H16.7899C16.3054 6.57443 15.889 6.7499 15.542 7.10083C15.195 7.45177 15.0209 7.87342 15.0209 8.36446V11.4456Z"
        fill="#161616" />
    <path
        d="M25.2928 4.28564H27.5818V11.4353C27.5818 11.9421 27.7546 12.3716 28.1029 12.7264C28.4499 13.0813 28.8663 13.2581 29.3508 13.2581H33.3329V4.28564H35.6219V13.2463C35.6219 13.8761 35.3979 14.413 34.9488 14.8569C34.501 15.3021 33.9549 15.5248 33.3107 15.5248H29.3508C28.6058 15.5248 27.9261 15.3427 27.3107 14.9774C26.6966 14.6121 26.2055 14.1223 25.8415 13.5069C25.4761 12.8927 25.2941 12.2118 25.2941 11.4667V4.28564H25.2928Z"
        fill="#161616" />
    <path
        d="M37.615 6.56264C37.615 5.9341 37.8416 5.39591 38.2934 4.95201C38.7451 4.50679 39.2898 4.28418 39.9262 4.28418H43.8861C44.6312 4.28418 45.3108 4.4675 45.9249 4.83153C46.539 5.19687 47.0301 5.68661 47.3954 6.30206C47.7608 6.9162 47.9428 7.59712 47.9428 8.3422V15.5246H45.6538V8.37494C45.6538 7.86818 45.4823 7.43867 45.1379 7.08381C44.7935 6.72895 44.3771 6.55217 43.8848 6.55217H39.9027V15.5246H37.6137V6.56264H37.615Z"
        fill="#161616" />
    <path
        d="M49.9364 8.34276C49.9364 7.59768 50.1184 6.91807 50.4838 6.30262C50.8491 5.68848 51.3389 5.19743 51.9543 4.83209C52.5685 4.46675 53.2494 4.28474 53.9945 4.28474H56.6736V6.57368H53.9945C53.51 6.57368 53.0935 6.74915 52.7465 7.10008C52.3995 7.45102 52.2254 7.87267 52.2254 8.36372V11.4658C52.2254 11.9503 52.3982 12.3667 52.7465 12.7137C53.0949 13.0608 53.51 13.2349 53.9945 13.2349H57.9765V0.0983887H60.2655V13.2362C60.2655 13.8661 60.0416 14.4043 59.5924 14.8521C59.1446 15.3012 58.6051 15.5252 57.9765 15.5252H53.9945C53.2494 15.5252 52.5698 15.3432 51.9543 14.9778C51.3402 14.6125 50.8491 14.124 50.4838 13.5138C50.1184 12.9023 49.9364 12.2279 49.9364 11.4907V8.34407V8.34276Z"
        fill="#161616" />
    <path
        d="M62.26 8.32254C62.26 7.57746 62.442 6.90177 62.8074 6.29418C63.1727 5.68659 63.6624 5.20078 64.2779 4.83544C64.892 4.4701 65.5729 4.28809 66.3167 4.28809H72.5877V15.5272H70.2988V6.57572H66.3167C65.8322 6.57572 65.4158 6.74726 65.0688 7.09165C64.7218 7.43472 64.5476 7.85244 64.5476 8.3448V11.4482C64.5476 11.9406 64.7218 12.3609 65.0688 12.7119C65.4158 13.0628 65.8322 13.2383 66.3167 13.2383H68.9959V15.5272H66.3167C65.5716 15.5272 64.892 15.3452 64.2779 14.9798C63.6624 14.6145 63.1727 14.1248 62.8074 13.5093C62.442 12.8952 62.26 12.2143 62.26 11.4692V8.32254Z"
        fill="#161616" />
    <path
        d="M74.5818 4.28605H76.0471V0.0983887H78.336V4.28605H81.797V6.57499H78.336V12.3353C78.336 12.5815 78.4316 12.7923 78.6241 12.9704C78.8153 13.1472 79.0458 13.2362 79.3129 13.2362H81.797V15.5252H79.2802C78.687 15.5252 78.1462 15.3824 77.6577 15.097C77.1693 14.8115 76.7791 14.4278 76.4858 13.9473C76.1925 13.4667 76.0471 12.9324 76.0471 12.3471V6.57499H74.5818V4.28605Z"
        fill="#161616" />
    <path
        d="M83.7897 1.2481C83.7897 0.929897 83.9023 0.658839 84.1263 0.43492C84.3502 0.211002 84.6212 0.0983887 84.9407 0.0983887C85.2603 0.0983887 85.53 0.211002 85.7539 0.43492C85.9778 0.658839 86.0905 0.929897 86.0905 1.2481C86.0905 1.5663 85.9778 1.83735 85.7539 2.06127C85.53 2.28519 85.2589 2.3978 84.9407 2.3978C84.6225 2.3978 84.3515 2.28519 84.1263 2.06127C83.9023 1.83735 83.7897 1.5663 83.7897 1.2481ZM83.7897 4.28605H86.0891V15.5252H83.7897V4.28605Z"
        fill="#161616" />
    <path
        d="M88.0854 8.3422C88.0854 7.59712 88.2674 6.91751 88.6327 6.30206C88.9981 5.68792 89.4878 5.19687 90.1033 4.83153C90.7174 4.46619 91.3983 4.28418 92.1421 4.28418H94.5934C95.3385 4.28418 96.0181 4.4675 96.6323 4.83153C97.2464 5.19687 97.7374 5.68661 98.1028 6.30206C98.4681 6.9162 98.6501 7.59712 98.6501 8.3422V11.4666C98.6501 12.2117 98.4668 12.8913 98.1028 13.5067C97.7374 14.1209 97.2477 14.6119 96.6323 14.9773C96.0181 15.3426 95.3372 15.5246 94.5934 15.5246H92.1421C91.397 15.5246 90.7174 15.3426 90.1033 14.9773C89.4878 14.6119 88.9981 14.1222 88.6327 13.5067C88.2674 12.8926 88.0854 12.2117 88.0854 11.4666V8.3422ZM90.3743 11.4456C90.3743 11.938 90.5485 12.3583 90.8955 12.7093C91.2425 13.0602 91.6589 13.2357 92.1434 13.2357H94.5947C95.0871 13.2357 95.5048 13.0602 95.8479 12.7093C96.191 12.3583 96.3638 11.9367 96.3638 11.4456V8.36446C96.3638 7.87211 96.1923 7.45177 95.8479 7.10083C95.5048 6.7499 95.0871 6.57443 94.5947 6.57443H92.1434C91.6589 6.57443 91.2425 6.7499 90.8955 7.10083C90.5485 7.45177 90.3743 7.87342 90.3743 8.36446V11.4456Z"
        fill="#161616" />
    <path
        d="M100.645 6.56264C100.645 5.9341 100.872 5.39591 101.324 4.95201C101.775 4.50679 102.32 4.28418 102.957 4.28418H106.916C107.661 4.28418 108.341 4.4675 108.956 4.83153C109.571 5.19687 110.062 5.68661 110.427 6.30206C110.792 6.9162 110.974 7.59712 110.974 8.3422V15.5246H108.685V8.37494C108.685 7.86818 108.514 7.43867 108.169 7.08381C107.826 6.72895 107.409 6.55217 106.916 6.55217H102.934V15.5246H100.645V6.56264Z"
        fill="#161616" />
    <path
        d="M58.6952 24.8176H65.7414V26.1592H60.0431V32.5537H65.7414V33.9017H58.6952V24.8176ZM60.8097 28.5036H65.7414V29.8451H60.8097V28.5036Z"
        fill="#633821" />
    <path
        d="M45.5586 27.3729C45.5586 26.9002 45.68 26.4722 45.9227 26.0889C46.1697 25.7013 46.4977 25.3926 46.9065 25.1626C47.3154 24.9326 47.7689 24.8176 48.2672 24.8176H52.5665V26.1592H48.2672C47.8924 26.1592 47.5709 26.2784 47.3026 26.5169C47.0385 26.7511 46.9065 27.0343 46.9065 27.3665V31.3528C46.9065 31.6849 47.0385 31.9703 47.3026 32.2088C47.5709 32.443 47.8924 32.5601 48.2672 32.5601H50.3945C50.7735 32.5601 51.095 32.443 51.3591 32.2088C51.6231 31.9703 51.7552 31.6849 51.7552 31.3528V30.1646H49.2893V28.823H53.1031V31.3464C53.1031 31.8148 52.9817 32.2429 52.7389 32.6304C52.4962 33.018 52.1683 33.3267 51.7552 33.5567C51.3463 33.7867 50.8927 33.9017 50.3945 33.9017H48.2672C47.7689 33.9017 47.3154 33.7867 46.9065 33.5567C46.4977 33.3267 46.1697 33.018 45.9227 32.6304C45.68 32.2429 45.5586 31.8148 45.5586 31.3464V27.3729Z"
        fill="#633821" />
    <path
        d="M32.7024 24.8176H37.5319C38.0046 24.8176 38.4347 24.9326 38.8223 25.1626C39.2141 25.3926 39.525 25.7013 39.755 26.0889C39.9849 26.4722 40.0999 26.9002 40.0999 27.3729V31.3719C40.0999 31.8361 39.9849 32.2599 39.755 32.6432C39.525 33.0265 39.2141 33.3331 38.8223 33.5631C38.4347 33.7888 38.0046 33.9017 37.5319 33.9017H32.7024V24.8176ZM37.5319 32.5537C37.8726 32.5537 38.1622 32.4366 38.4007 32.2024C38.6392 31.9682 38.7584 31.6849 38.7584 31.3528V27.3729C38.7584 27.0365 38.6392 26.7511 38.4007 26.5169C38.1622 26.2784 37.8726 26.1592 37.5319 26.1592H34.0503V32.5537H37.5319Z"
        fill="#633821" />
    <path d="M25.6347 24.8176H26.9826V33.9017H25.6347V24.8176Z" fill="#633821" />
    <path
        d="M12.9196 24.8176H17.7235C18.1366 24.8176 18.5114 24.9198 18.8478 25.1243C19.1885 25.3244 19.459 25.5927 19.6591 25.9292C19.8635 26.2656 19.9657 26.6404 19.9657 27.0535V27.9606C19.9657 28.3737 19.8657 28.7464 19.6655 29.0786C19.4696 29.4107 19.2013 29.6748 18.8606 29.8707C18.5199 30.0666 18.1387 30.1646 17.7171 30.1646L20.4257 33.9017H18.7839L16.0753 30.1646H15.0341V28.823H17.7235C17.9748 28.823 18.1877 28.7379 18.3623 28.5675C18.5369 28.3929 18.6242 28.1842 18.6242 27.9415V27.0535C18.6242 26.8065 18.5369 26.5957 18.3623 26.4211C18.1877 26.2465 17.9748 26.1592 17.7235 26.1592H14.2675V33.9017H12.9196V24.8176Z"
        fill="#633821" />
    <path
        d="M0 24.8176H4.78477C5.20639 24.8176 5.58755 24.9177 5.92826 25.1179C6.26896 25.318 6.53939 25.5863 6.73956 25.9228C6.94398 26.2592 7.04619 26.6361 7.04619 27.0535V27.6476C7.04619 28.2396 6.87584 28.6889 6.53514 28.9955C6.83751 29.1914 7.05684 29.4257 7.19312 29.6982C7.3294 29.9665 7.39754 30.303 7.39754 30.7076V31.7105C7.39754 32.1108 7.29533 32.4771 7.09091 32.8093C6.89075 33.1415 6.62031 33.4076 6.27961 33.6078C5.9389 33.8037 5.562 33.9017 5.14889 33.9017H0V24.8176ZM5.16167 32.5537C5.40868 32.5537 5.61949 32.4707 5.7941 32.3046C5.96871 32.1343 6.05602 31.9298 6.05602 31.6913V30.6884C6.05602 30.4499 5.96871 30.2455 5.7941 30.0751C5.61949 29.9048 5.40655 29.8196 5.15528 29.8196H2.1145V28.4781H4.78477C5.03604 28.4781 5.25111 28.3972 5.42998 28.2353C5.6131 28.0692 5.70467 27.8691 5.70467 27.6348V27.0535C5.70467 26.8065 5.6131 26.5957 5.42998 26.4211C5.25111 26.2465 5.03604 26.1592 4.78477 26.1592H1.34791V32.5537H5.16167Z"
        fill="#633821" />
</svg>