<svg width="32" height="32" viewBox="0 0 32 32" fill="none" xmlns="http://www.w3.org/2000/svg">
    <path
        d="M18.9206 20.2695H14.6128C13.967 20.2695 13.3704 20.6141 13.0475 21.1732L11.7678 23.3901C11.4114 24.0064 10.8149 24.4356 10.1336 24.5852C9.92297 24.6404 9.7064 24.6699 9.48392 24.6699H1.34866C0.604435 24.6699 0 25.2743 0 26.0185V30.6512C0 31.3955 0.604435 31.9999 1.34866 31.9999H5.65649C6.30227 31.9999 6.89883 31.6553 7.22172 31.0962L8.50147 28.8793C8.85783 28.263 9.45439 27.8338 10.1356 27.6842C10.3463 27.6291 10.5628 27.5995 10.7853 27.5995H18.9206C19.6648 27.5995 20.2692 26.9951 20.2692 26.2509V21.6182C20.2692 20.874 19.6648 20.2695 18.9206 20.2695Z"
        fill="#633821" />
    <path
        d="M30.652 0H26.3442C25.6984 0 25.1019 0.344547 24.779 0.903698L23.4992 3.12061C23.1429 3.73686 22.5463 4.16607 21.8651 4.3157C21.6544 4.37083 21.4378 4.40036 21.2154 4.40036H13.0801C12.3359 4.40036 11.7314 5.0048 11.7314 5.74902V10.3817C11.7314 11.1259 12.3359 11.7304 13.0801 11.7304H17.3879C18.0337 11.7304 18.6303 11.3858 18.9532 10.8267L20.2329 8.60975C20.5893 7.9935 21.1858 7.56429 21.8671 7.41466C22.0777 7.35953 22.2943 7.33 22.5168 7.33H30.652C31.3963 7.33 32.0007 6.72556 32.0007 5.98134V1.34866C32.0007 0.604434 31.3963 0 30.652 0Z"
        fill="#633821" />
    <path
        d="M31.9989 30.651V26.3432C31.9989 25.6974 31.6544 25.1009 31.0952 24.778L28.8783 23.4982C28.2621 23.1419 27.8329 22.5453 27.6832 21.8641C27.6281 21.6534 27.5986 21.4369 27.5986 21.2144V13.0791C27.5986 12.3349 26.9941 11.7305 26.2499 11.7305H21.6172C20.873 11.7305 20.2686 12.3349 20.2686 13.0791V17.387C20.2686 18.0327 20.6131 18.6293 21.1723 18.9522L23.3892 20.2319C24.0054 20.5883 24.4346 21.1848 24.5843 21.8661C24.6394 22.0767 24.6689 22.2933 24.6689 22.5158V30.651C24.6689 31.3953 25.2734 31.9997 26.0176 31.9997H30.6503C31.3945 31.9997 31.9989 31.3953 31.9989 30.651Z"
        fill="#633821" />
    <path
        d="M11.7304 18.9206V14.6127C11.7304 13.967 11.3858 13.3704 10.8267 13.0475L8.60975 11.7678C7.9935 11.4114 7.5643 10.8148 7.41466 10.1336C7.35954 9.92296 7.33 9.70639 7.33 9.48391V1.34866C7.33 0.604434 6.72557 0 5.98135 0H1.34866C0.604435 0 0 0.604434 0 1.34866V5.65648C0 6.30226 0.344548 6.89882 0.903699 7.22171L3.12062 8.50146C3.73686 8.85782 4.16607 9.45438 4.3157 10.1356C4.37083 10.3463 4.40036 10.5628 4.40036 10.7853V18.9206C4.40036 19.6648 5.0048 20.2692 5.74902 20.2692H10.3817C11.1259 20.2692 11.7304 19.6648 11.7304 18.9206Z"
        fill="#633821" />
</svg>