<svg width="157" height="22" viewBox="0 0 157 22" fill="none" xmlns="http://www.w3.org/2000/svg">
<path d="M0.24292 0.12735H14.8009V3.33906H3.4694V21.8729H0.24292V0.12735ZM5.30414 8.95033H14.8009V12.162H5.30414V8.95033Z" fill="black"/>
<path d="M17.6135 11.7484C17.6135 10.6982 17.8701 9.74019 18.3851 8.87266C18.9001 8.00697 19.5904 7.31479 20.4579 6.79981C21.3236 6.28483 22.2834 6.02826 23.3337 6.02826H26.7891C27.8393 6.02826 28.7973 6.28667 29.6648 6.79981C30.5305 7.31479 31.2227 8.00512 31.7377 8.87266C32.2527 9.73834 32.5092 10.6982 32.5092 11.7484V16.1525C32.5092 17.2028 32.2527 18.1608 31.7377 19.0283C31.2227 19.894 30.5324 20.5862 29.6648 21.1012C28.7973 21.6162 27.8393 21.8727 26.7891 21.8727H23.3337C22.2834 21.8727 21.3255 21.6162 20.4579 21.1012C19.5922 20.5862 18.9001 19.8959 18.3851 19.0283C17.8701 18.1626 17.6135 17.2028 17.6135 16.1525V11.7484ZM20.84 16.123C20.84 16.817 21.0855 17.4095 21.5746 17.9042C22.0638 18.3989 22.6508 18.6462 23.3337 18.6462H26.7891C27.4831 18.6462 28.0719 18.3989 28.5555 17.9042C29.0391 17.4095 29.2828 16.8152 29.2828 16.123V11.7798C29.2828 11.0858 29.041 10.4933 28.5555 9.9986C28.0719 9.50392 27.4831 9.25659 26.7891 9.25659H23.3337C22.6508 9.25659 22.0638 9.50392 21.5746 9.9986C21.0855 10.4933 20.84 11.0876 20.84 11.7798V16.123Z" fill="black"/>
<path d="M35.3188 6.03012H38.5453V16.1083C38.5453 16.8226 38.789 17.428 39.28 17.9282C39.7691 18.4284 40.3561 18.6776 41.039 18.6776H46.6521V6.03012H49.8786V18.661C49.8786 19.5489 49.563 20.3056 48.9299 20.9314C48.2986 21.5589 47.5289 21.8727 46.6208 21.8727H41.039C39.9888 21.8727 39.0308 21.6162 38.1632 21.1012C37.2976 20.5862 36.6054 19.8959 36.0922 19.0283C35.5773 18.1626 35.3207 17.2028 35.3207 16.1526V6.03012H35.3188Z" fill="black"/>
<path d="M52.6884 9.23997C52.6884 8.35398 53.0077 7.59535 53.6445 6.96962C54.2813 6.34205 55.0492 6.02826 55.9462 6.02826H61.528C62.5782 6.02826 63.5362 6.28667 64.4019 6.79981C65.2676 7.31479 65.9598 8.00512 66.4747 8.87266C66.9897 9.73834 67.2463 10.6982 67.2463 11.7484V21.8727H64.0198V11.7946C64.0198 11.0802 63.778 10.4748 63.2926 9.97461C62.8071 9.47439 62.2201 9.22521 61.5261 9.22521H55.913V21.8727H52.6865V9.23997H52.6884Z" fill="black"/>
<path d="M70.0571 11.7486C70.0571 10.6983 70.3137 9.74037 70.8287 8.87284C71.3437 8.00715 72.034 7.31497 72.9015 6.79999C73.7672 6.28501 74.727 6.02844 75.7773 6.02844H79.5538V9.25492H75.7773C75.0944 9.25492 74.5074 9.50226 74.0182 9.99694C73.5291 10.4916 73.2836 11.086 73.2836 11.7782V16.1509C73.2836 16.8338 73.5273 17.4208 74.0182 17.9099C74.5092 18.3991 75.0944 18.6446 75.7773 18.6446H81.3904V0.12738H84.6169V18.6464C84.6169 19.5343 84.3013 20.2929 83.6682 20.9242C83.0369 21.5573 82.2764 21.8729 81.3904 21.8729H75.7773C74.727 21.8729 73.7691 21.6163 72.9015 21.1014C72.0358 20.5864 71.3437 19.8979 70.8287 19.0377C70.3137 18.1757 70.0571 17.2251 70.0571 16.186V11.7505V11.7486Z" fill="black"/>
<path d="M87.4275 11.7189C87.4275 10.6687 87.6841 9.71622 88.199 8.85977C88.714 8.00331 89.4044 7.31851 90.2719 6.80353C91.1376 6.28855 92.0974 6.03198 93.1458 6.03198H101.985V21.8746H98.7589V9.25662H93.1458C92.4629 9.25662 91.8759 9.49842 91.3868 9.98387C90.8976 10.4675 90.6521 11.0563 90.6521 11.7503V16.1249C90.6521 16.8189 90.8976 17.4114 91.3868 17.9061C91.8759 18.4008 92.4629 18.6481 93.1458 18.6481H96.9223V21.8746H93.1458C92.0955 21.8746 91.1376 21.618 90.2719 21.103C89.4044 20.5881 88.714 19.8977 88.199 19.0302C87.6841 18.1645 87.4275 17.2047 87.4275 16.1544V11.7189Z" fill="black"/>
<path d="M104.797 6.03029H106.863V0.12738H110.089V6.03029H114.968V9.25677H110.089V17.3765C110.089 17.7235 110.224 18.0207 110.495 18.2717C110.765 18.5209 111.09 18.6464 111.466 18.6464H114.968V21.8729H111.42C110.584 21.8729 109.822 21.6717 109.133 21.2693C108.445 20.8669 107.895 20.3261 107.481 19.6487C107.068 18.9713 106.863 18.2182 106.863 17.3931V9.25677H104.797V6.03029Z" fill="black"/>
<path d="M117.777 1.748C117.777 1.29947 117.936 0.917388 118.252 0.601754C118.567 0.28612 118.949 0.12738 119.4 0.12738C119.85 0.12738 120.23 0.28612 120.546 0.601754C120.862 0.917388 121.02 1.29947 121.02 1.748C121.02 2.19654 120.862 2.57862 120.546 2.89425C120.23 3.20989 119.848 3.36863 119.4 3.36863C118.951 3.36863 118.569 3.20989 118.252 2.89425C117.936 2.57862 117.777 2.19654 117.777 1.748ZM117.777 6.03029H121.019V21.8729H117.777V6.03029Z" fill="black"/>
<path d="M123.831 11.7484C123.831 10.6982 124.088 9.74019 124.603 8.87266C125.118 8.00697 125.808 7.31479 126.675 6.79981C127.541 6.28483 128.501 6.02826 129.549 6.02826H133.005C134.055 6.02826 135.013 6.28667 135.879 6.79981C136.744 7.31479 137.437 8.00512 137.952 8.87266C138.467 9.73834 138.723 10.6982 138.723 11.7484V16.1525C138.723 17.2028 138.465 18.1608 137.952 19.0283C137.437 19.894 136.746 20.5862 135.879 21.1012C135.013 21.6162 134.053 21.8727 133.005 21.8727H129.549C128.499 21.8727 127.541 21.6162 126.675 21.1012C125.808 20.5862 125.118 19.8959 124.603 19.0283C124.088 18.1626 123.831 17.2028 123.831 16.1525V11.7484ZM127.058 16.123C127.058 16.817 127.303 17.4095 127.792 17.9042C128.281 18.3989 128.868 18.6462 129.551 18.6462H133.007C133.701 18.6462 134.289 18.3989 134.773 17.9042C135.257 17.4095 135.5 16.8152 135.5 16.123V11.7798C135.5 11.0858 135.258 10.4933 134.773 9.9986C134.289 9.50392 133.701 9.25659 133.007 9.25659H129.551C128.868 9.25659 128.281 9.50392 127.792 9.9986C127.303 10.4933 127.058 11.0876 127.058 11.7798V16.123Z" fill="black"/>
<path d="M141.537 9.23997C141.537 8.35398 141.856 7.59535 142.493 6.96962C143.13 6.34205 143.897 6.02826 144.794 6.02826H150.376C151.427 6.02826 152.384 6.28667 153.252 6.79981C154.118 7.31479 154.81 8.00512 155.325 8.87266C155.84 9.73834 156.096 10.6982 156.096 11.7484V21.8727H152.87V11.7946C152.87 11.0802 152.628 10.4748 152.143 9.97461C151.659 9.47439 151.07 9.22521 150.376 9.22521H144.763V21.8727H141.537V9.23997Z" fill="black"/>
</svg>
