<svg width="21" height="20" viewBox="0 0 21 20" fill="none" xmlns="http://www.w3.org/2000/svg">
<g clip-path="url(#clip0_9373_21769)">
<path d="M6.4187 5.35645L13.475 14.5814H14.5562L7.5812 5.35645H6.4187Z" fill="#8F8F8F" fill-opacity="0.8"/>
<path d="M10.5 0C4.975 0 0.5 4.475 0.5 10C0.5 15.525 4.975 20 10.5 20C16.025 20 20.5 15.525 20.5 10C20.5 4.475 16.025 0 10.5 0ZM12.9375 15.75L9.8625 11.7313L6.34375 15.75H4.39375L8.95001 10.5438L4.14375 4.25H8.16875L10.95 7.925L14.1625 4.25H16.1125L11.85 9.11875L16.8625 15.7438H12.9375V15.75Z" fill="#8F8F8F" fill-opacity="0.8"/>
</g>
<defs>
<clipPath id="clip0_9373_21769">
<rect width="20" height="20" fill="white" transform="translate(0.5)"/>
</clipPath>
</defs>
</svg>
