<svg width="107" height="24" viewBox="0 0 107 24" fill="none" xmlns="http://www.w3.org/2000/svg">
    <path
        d="M32.571 0H39.4562V1.51898H34.097V10.2845H32.571V0ZM34.9647 4.17282H39.4562V5.6918H34.9647V4.17282Z"
        fill="white" />
    <path
        d="M40.7866 5.49588C40.7866 4.99915 40.908 4.54608 41.1515 4.13578C41.3951 3.72636 41.7216 3.39899 42.1319 3.15543C42.5413 2.91187 42.9952 2.79053 43.492 2.79053H45.1262C45.6229 2.79053 46.076 2.91274 46.4863 3.15543C46.8957 3.39899 47.2231 3.72548 47.4666 4.13578C47.7102 4.54521 47.8315 4.99915 47.8315 5.49588V7.57879C47.8315 8.07552 47.7102 8.52859 47.4666 8.93889C47.2231 9.34832 46.8966 9.67568 46.4863 9.91924C46.076 10.1628 45.6229 10.2841 45.1262 10.2841H43.492C42.9952 10.2841 42.5422 10.1628 42.1319 9.91924C41.7225 9.67568 41.3951 9.34919 41.1515 8.93889C40.908 8.52947 40.7866 8.07552 40.7866 7.57879V5.49588ZM42.3126 7.56483C42.3126 7.89307 42.4287 8.17329 42.66 8.40725C42.8914 8.64121 43.169 8.75818 43.492 8.75818H45.1262C45.4544 8.75818 45.7329 8.64121 45.9616 8.40725C46.1903 8.17329 46.3056 7.89219 46.3056 7.56483V5.51072C46.3056 5.18248 46.1912 4.90225 45.9616 4.6683C45.7329 4.43434 45.4544 4.31736 45.1262 4.31736H43.492C43.169 4.31736 42.8914 4.43434 42.66 4.6683C42.4287 4.90225 42.3126 5.18335 42.3126 5.51072V7.56483Z"
        fill="white" />
    <path
        d="M49.1604 2.7915H50.6864V7.55795C50.6864 7.89579 50.8016 8.18212 51.0338 8.4187C51.2651 8.65528 51.5427 8.77313 51.8657 8.77313H54.5205V2.7915H56.0464V8.76527C56.0464 9.18517 55.8971 9.54309 55.5977 9.83903C55.2992 10.1358 54.9351 10.2842 54.5056 10.2842H51.8657C51.369 10.2842 50.916 10.1629 50.5057 9.91934C50.0962 9.67578 49.7689 9.34929 49.5262 8.93899C49.2826 8.52957 49.1613 8.07562 49.1613 7.5789V2.7915H49.1604Z"
        fill="white" />
    <path
        d="M57.3754 4.3095C57.3754 3.89048 57.5264 3.53168 57.8276 3.23574C58.1288 2.93893 58.4919 2.79053 58.9162 2.79053H61.5561C62.0528 2.79053 62.5059 2.91274 62.9153 3.15543C63.3247 3.39899 63.6521 3.72548 63.8956 4.13578C64.1392 4.54521 64.2605 4.99915 64.2605 5.49588V10.2841H62.7346V5.5177C62.7346 5.17986 62.6202 4.89352 62.3906 4.65695C62.161 4.42037 61.8834 4.30252 61.5552 4.30252H58.9005V10.2841H57.3745V4.3095H57.3754Z"
        fill="white" />
    <path
        d="M65.5896 5.49625C65.5896 4.99953 65.7109 4.54645 65.9545 4.13616C66.1981 3.72673 66.5246 3.39936 66.9349 3.1558C67.3443 2.91224 67.7982 2.7909 68.2949 2.7909H70.0811V4.31686H68.2949C67.9719 4.31686 67.6943 4.43384 67.463 4.6678C67.2317 4.90175 67.1156 5.18285 67.1156 5.51022V7.5783C67.1156 7.9013 67.2308 8.1789 67.463 8.41024C67.6952 8.64158 67.9719 8.75768 68.2949 8.75768H70.9497V0H72.4756V8.75856C72.4756 9.17846 72.3263 9.53725 72.0269 9.83581C71.7284 10.1352 71.3687 10.2845 70.9497 10.2845H68.2949C67.7982 10.2845 67.3452 10.1632 66.9349 9.91961C66.5254 9.67605 66.1981 9.35043 65.9545 8.94363C65.7109 8.53595 65.5896 8.08637 65.5896 7.59488V5.49712V5.49625Z"
        fill="white" />
    <path
        d="M73.8052 5.48285C73.8052 4.98613 73.9265 4.53567 74.1701 4.13061C74.4136 3.72555 74.7401 3.40168 75.1504 3.15812C75.5599 2.91456 76.0138 2.79321 76.5097 2.79321H80.6903V10.286H79.1644V4.3183H76.5097C76.1866 4.3183 75.909 4.43266 75.6777 4.66225C75.4464 4.89097 75.3303 5.16945 75.3303 5.49769V7.56664C75.3303 7.89488 75.4464 8.1751 75.6777 8.40906C75.909 8.64302 76.1866 8.76 76.5097 8.76H78.2958V10.286H76.5097C76.0129 10.286 75.5599 10.1646 75.1504 9.92105C74.7401 9.67749 74.4136 9.351 74.1701 8.9407C73.9265 8.53128 73.8052 8.07733 73.8052 7.58061V5.48285Z"
        fill="white" />
    <path
        d="M82.0198 2.79177H82.9966V0H84.5226V2.79177H86.8299V4.31773H84.5226V8.15795C84.5226 8.32207 84.5863 8.46262 84.7146 8.58134C84.8421 8.69919 84.9957 8.75856 85.1738 8.75856H86.8299V10.2845H85.152C84.7566 10.2845 84.396 10.1894 84.0704 9.99905C83.7448 9.80875 83.4846 9.55296 83.2891 9.23258C83.0935 8.9122 82.9966 8.55603 82.9966 8.16581V4.31773H82.0198V2.79177Z"
        fill="white" />
    <path
        d="M88.1584 0.766472C88.1584 0.554339 88.2335 0.373633 88.3828 0.224355C88.5321 0.0750758 88.7128 0 88.9258 0C89.1388 0 89.3186 0.0750758 89.4679 0.224355C89.6172 0.373633 89.6923 0.554339 89.6923 0.766472C89.6923 0.978605 89.6172 1.15931 89.4679 1.30859C89.3186 1.45787 89.1379 1.53294 88.9258 1.53294C88.7137 1.53294 88.533 1.45787 88.3828 1.30859C88.2335 1.15931 88.1584 0.978605 88.1584 0.766472ZM88.1584 2.79177H89.6914V10.2845H88.1584V2.79177Z"
        fill="white" />
    <path
        d="M91.0222 5.49588C91.0222 4.99915 91.1436 4.54608 91.3871 4.13578C91.6307 3.72636 91.9572 3.39899 92.3675 3.15543C92.7769 2.91187 93.2308 2.79053 93.7267 2.79053H95.3609C95.8576 2.79053 96.3107 2.91274 96.7201 3.15543C97.1296 3.39899 97.4569 3.72548 97.7005 4.13578C97.944 4.54521 98.0654 4.99915 98.0654 5.49588V7.57879C98.0654 8.07552 97.9432 8.52859 97.7005 8.93889C97.4569 9.34832 97.1304 9.67568 96.7201 9.91924C96.3107 10.1628 95.8568 10.2841 95.3609 10.2841H93.7267C93.23 10.2841 92.7769 10.1628 92.3675 9.91924C91.9572 9.67568 91.6307 9.34919 91.3871 8.93889C91.1436 8.52947 91.0222 8.07552 91.0222 7.57879V5.49588ZM92.5482 7.56483C92.5482 7.89307 92.6643 8.17329 92.8956 8.40725C93.127 8.64121 93.4046 8.75818 93.7276 8.75818H95.3618C95.69 8.75818 95.9685 8.64121 96.1972 8.40725C96.4259 8.17329 96.5412 7.89219 96.5412 7.56483V5.51072C96.5412 5.18248 96.4268 4.90225 96.1972 4.6683C95.9685 4.43434 95.69 4.31736 95.3618 4.31736H93.7276C93.4046 4.31736 93.127 4.43434 92.8956 4.6683C92.6643 4.90225 92.5482 5.18335 92.5482 5.51072V7.56483Z"
        fill="white" />
    <path
        d="M99.3955 4.3095C99.3955 3.89048 99.5465 3.53168 99.8477 3.23574C100.149 2.93893 100.512 2.79053 100.936 2.79053H103.576C104.073 2.79053 104.526 2.91274 104.936 3.15543C105.346 3.39899 105.673 3.72548 105.917 4.13578C106.16 4.54521 106.282 4.99915 106.282 5.49588V10.2841H104.756V5.5177C104.756 5.17986 104.641 4.89352 104.412 4.65695C104.183 4.42037 103.904 4.30252 103.576 4.30252H100.921V10.2841H99.3955V4.3095Z"
        fill="white" />
    <path
        d="M14.1903 15.2021H10.9595C10.4751 15.2021 10.0277 15.4606 9.78556 15.8799L8.82576 17.5426C8.55849 18.0048 8.11108 18.3267 7.60016 18.4389C7.44217 18.4802 7.27974 18.5024 7.11288 18.5024H1.01148C0.453322 18.5024 0 18.9557 0 19.5139V22.9884C0 23.5465 0.453322 23.9999 1.01148 23.9999H4.24233C4.72666 23.9999 5.17408 23.7414 5.41624 23.3221L6.37605 21.6594C6.64331 21.1972 7.09073 20.8753 7.60164 20.7631C7.75964 20.7218 7.92207 20.6996 8.08893 20.6996H14.1903C14.7485 20.6996 15.2018 20.2463 15.2018 19.6881V16.2136C15.2018 15.6555 14.7485 15.2021 14.1903 15.2021Z"
        fill="white" />
    <path
        d="M22.9879 0H19.7571C19.2728 0 18.8253 0.258409 18.5832 0.677769L17.6234 2.34044C17.3561 2.80263 16.9087 3.12453 16.3978 3.23675C16.2398 3.2781 16.0773 3.30025 15.9105 3.30025H9.80909C9.25093 3.30025 8.79761 3.75357 8.79761 4.31173V7.78622C8.79761 8.34438 9.25093 8.7977 9.80909 8.7977H13.0399C13.5243 8.7977 13.9717 8.5393 14.2139 8.11994L15.1737 6.45726C15.4409 5.99508 15.8883 5.67318 16.3992 5.56095C16.5572 5.51961 16.7197 5.49746 16.8865 5.49746H22.9879C23.5461 5.49746 23.9994 5.04414 23.9994 4.48597V1.01148C23.9994 0.453322 23.5461 0 22.9879 0Z"
        fill="white" />
    <path
        d="M23.9981 22.9877V19.7568C23.9981 19.2725 23.7397 18.8251 23.3204 18.5829L21.6577 17.6231C21.1955 17.3559 20.8736 16.9084 20.7614 16.3975C20.72 16.2395 20.6979 16.0771 20.6979 15.9102V9.80885C20.6979 9.25069 20.2446 8.79736 19.6864 8.79736H16.2119C15.6538 8.79736 15.2004 9.25069 15.2004 9.80885V13.0397C15.2004 13.524 15.4588 13.9714 15.8782 14.2136L17.5409 15.1734C18.0031 15.4407 18.325 15.8881 18.4372 16.399C18.4785 16.557 18.5007 16.7194 18.5007 16.8863V22.9877C18.5007 23.5458 18.954 23.9992 19.5122 23.9992H22.9867C23.5448 23.9992 23.9981 23.5458 23.9981 22.9877Z"
        fill="white" />
    <path
        d="M8.7977 14.1903V10.9595C8.7977 10.4751 8.5393 10.0277 8.11994 9.78556L6.45726 8.82576C5.99508 8.55849 5.67318 8.11107 5.56095 7.60016C5.51961 7.44217 5.49746 7.27974 5.49746 7.11288V1.01148C5.49746 0.453322 5.04414 0 4.48597 0H1.01148C0.453322 0 0 0.453322 0 1.01148V4.24233C0 4.72666 0.258409 5.17408 0.677769 5.41624L2.34044 6.37605C2.80263 6.64331 3.12453 7.09073 3.23675 7.60164C3.2781 7.75964 3.30025 7.92207 3.30025 8.08893V14.1903C3.30025 14.7485 3.75357 15.2018 4.31173 15.2018H7.78622C8.34438 15.2018 8.7977 14.7485 8.7977 14.1903Z"
        fill="white" />
    <path
        d="M71.4287 16.4795H76.1262V17.3738H72.3273V21.6369H76.1262V22.5355H71.4287V16.4795ZM72.8384 18.9368H76.1262V19.8312H72.8384V18.9368Z"
        fill="#C49373" />
    <path
        d="M62.6709 18.183C62.6709 17.8679 62.7518 17.5825 62.9137 17.327C63.0783 17.0686 63.2969 16.8628 63.5695 16.7095C63.8421 16.5562 64.1444 16.4795 64.4766 16.4795H67.3428V17.3738H64.4766C64.2268 17.3738 64.0124 17.4533 63.8336 17.6123C63.6575 17.7685 63.5695 17.9573 63.5695 18.1788V20.8362C63.5695 21.0577 63.6575 21.2479 63.8336 21.4069C64.0124 21.5631 64.2268 21.6412 64.4766 21.6412H65.8948C66.1475 21.6412 66.3619 21.5631 66.5379 21.4069C66.7139 21.2479 66.8019 21.0577 66.8019 20.8362V20.0441H65.158V19.1498H67.7005V20.832C67.7005 21.1443 67.6196 21.4296 67.4578 21.688C67.296 21.9464 67.0773 22.1522 66.8019 22.3055C66.5294 22.4589 66.227 22.5355 65.8948 22.5355H64.4766C64.1444 22.5355 63.8421 22.4589 63.5695 22.3055C63.2969 22.1522 63.0783 21.9464 62.9137 21.688C62.7518 21.4296 62.6709 21.1443 62.6709 20.832V18.183Z"
        fill="#C49373" />
    <path
        d="M54.1001 16.4795H57.3198C57.6349 16.4795 57.9217 16.5562 58.18 16.7095C58.4412 16.8628 58.6485 17.0686 58.8018 17.327C58.9551 17.5825 59.0318 17.8679 59.0318 18.183V20.849C59.0318 21.1585 58.9551 21.441 58.8018 21.6965C58.6485 21.9521 58.4412 22.1565 58.18 22.3098C57.9217 22.4603 57.6349 22.5355 57.3198 22.5355H54.1001V16.4795ZM57.3198 21.6369C57.5469 21.6369 57.74 21.5588 57.899 21.4027C58.0579 21.2465 58.1374 21.0577 58.1374 20.8362V18.183C58.1374 17.9587 58.0579 17.7685 57.899 17.6123C57.74 17.4533 57.5469 17.3738 57.3198 17.3738H54.9987V21.6369H57.3198Z"
        fill="#C49373" />
    <path d="M49.3884 16.4795H50.287V22.5355H49.3884V16.4795Z" fill="#C49373" />
    <path
        d="M40.9116 16.4795H44.1142C44.3896 16.4795 44.6395 16.5476 44.8638 16.6839C45.0909 16.8174 45.2712 16.9962 45.4047 17.2205C45.5409 17.4448 45.6091 17.6947 45.6091 17.9701V18.5748C45.6091 18.8502 45.5424 19.0987 45.4089 19.3201C45.2783 19.5416 45.0994 19.7176 44.8723 19.8482C44.6452 19.9788 44.3911 20.0441 44.11 20.0441L45.9157 22.5355H44.8212L43.0155 20.0441H42.3213V19.1498H44.1142C44.2818 19.1498 44.4237 19.093 44.5401 18.9794C44.6565 18.863 44.7147 18.7239 44.7147 18.562V17.9701C44.7147 17.8054 44.6565 17.6649 44.5401 17.5485C44.4237 17.432 44.2818 17.3738 44.1142 17.3738H41.8102V22.5355H40.9116V16.4795Z"
        fill="#C49373" />
    <path
        d="M32.2986 16.4795H35.4884C35.7695 16.4795 36.0236 16.5462 36.2508 16.6797C36.4779 16.8131 36.6582 16.992 36.7916 17.2163C36.9279 17.4406 36.996 17.6918 36.996 17.9701V18.3661C36.996 18.7608 36.8825 19.0603 36.6553 19.2648C36.8569 19.3954 37.0031 19.5515 37.094 19.7332C37.1849 19.9121 37.2303 20.1364 37.2303 20.4061V21.0747C37.2303 21.3416 37.1621 21.5858 37.0259 21.8073C36.8924 22.0287 36.7121 22.2062 36.485 22.3396C36.2579 22.4702 36.0066 22.5355 35.7312 22.5355H32.2986V16.4795ZM35.7397 21.6369C35.9044 21.6369 36.0449 21.5815 36.1613 21.4708C36.2777 21.3572 36.3359 21.221 36.3359 21.062V20.3933C36.3359 20.2343 36.2777 20.0981 36.1613 19.9845C36.0449 19.8709 35.903 19.8141 35.7354 19.8141H33.7082V18.9198H35.4884C35.6559 18.9198 35.7993 18.8658 35.9186 18.758C36.0407 18.6472 36.1017 18.5138 36.1017 18.3576V17.9701C36.1017 17.8054 36.0407 17.6649 35.9186 17.5485C35.7993 17.432 35.6559 17.3738 35.4884 17.3738H33.1972V21.6369H35.7397Z"
        fill="#C49373" />
</svg>