<svg width="187" height="21" viewBox="0 0 187 21" fill="none" xmlns="http://www.w3.org/2000/svg">
<path d="M1.316 16V6.2H5.39C5.95 6.2 6.454 6.33533 6.902 6.606C7.35933 6.87667 7.72333 7.24533 7.994 7.712C8.26467 8.17867 8.4 8.70133 8.4 9.28C8.4 9.868 8.26467 10.4 7.994 10.876C7.72333 11.3427 7.35933 11.716 6.902 11.996C6.454 12.276 5.95 12.416 5.39 12.416H3.136V16H1.316ZM3.136 10.736H5.264C5.49733 10.736 5.70733 10.6707 5.894 10.54C6.09 10.4093 6.244 10.2367 6.356 10.022C6.47733 9.80733 6.538 9.56467 6.538 9.294C6.538 9.02333 6.47733 8.78533 6.356 8.58C6.244 8.36533 6.09 8.19733 5.894 8.076C5.70733 7.94533 5.49733 7.88 5.264 7.88H3.136V10.736ZM13.255 16.14C12.5177 16.14 11.8597 15.9767 11.281 15.65C10.7024 15.314 10.245 14.8567 9.90905 14.278C9.57305 13.6993 9.40505 13.0413 9.40505 12.304C9.40505 11.5667 9.57305 10.9087 9.90905 10.33C10.245 9.75133 10.7024 9.29867 11.281 8.972C11.8597 8.636 12.5177 8.468 13.255 8.468C13.983 8.468 14.6364 8.636 15.215 8.972C15.7937 9.29867 16.2464 9.75133 16.573 10.33C16.909 10.9087 17.077 11.5667 17.077 12.304C17.077 13.0413 16.909 13.6993 16.573 14.278C16.2464 14.8567 15.7937 15.314 15.215 15.65C14.6364 15.9767 13.983 16.14 13.255 16.14ZM13.255 14.614C13.6564 14.614 14.011 14.5113 14.319 14.306C14.6364 14.1007 14.8837 13.8253 15.061 13.48C15.2477 13.1347 15.3364 12.7427 15.327 12.304C15.3364 11.856 15.2477 11.4593 15.061 11.114C14.8837 10.7687 14.6364 10.498 14.319 10.302C14.011 10.0967 13.6564 9.994 13.255 9.994C12.8537 9.994 12.4897 10.0967 12.163 10.302C11.8457 10.498 11.5984 10.7733 11.421 11.128C11.2437 11.4733 11.155 11.8653 11.155 12.304C11.155 12.7427 11.2437 13.1347 11.421 13.48C11.5984 13.8253 11.8457 14.1007 12.163 14.306C12.4897 14.5113 12.8537 14.614 13.255 14.614ZM20.0799 16L17.6019 8.622L19.3659 8.608L21.0179 13.872L20.7099 13.844L22.5019 9.728H23.5379L25.3719 13.844L25.0079 13.886L26.6739 8.622H28.4379L25.9459 16H24.7139L22.8239 11.576L23.0899 11.604L21.2979 16H20.0799ZM32.9582 16.14C32.1835 16.14 31.4975 15.9767 30.9002 15.65C30.3122 15.3233 29.8502 14.88 29.5142 14.32C29.1875 13.7507 29.0242 13.102 29.0242 12.374C29.0242 11.7953 29.1175 11.268 29.3042 10.792C29.4909 10.316 29.7475 9.90533 30.0742 9.56C30.4102 9.20533 30.8069 8.93467 31.2642 8.748C31.7309 8.552 32.2395 8.454 32.7902 8.454C33.2755 8.454 33.7282 8.54733 34.1482 8.734C34.5682 8.92067 34.9322 9.17733 35.2402 9.504C35.5482 9.82133 35.7815 10.204 35.9402 10.652C36.1082 11.0907 36.1875 11.5713 36.1782 12.094L36.1642 12.696H30.1862L29.8642 11.52H34.7222L34.4982 11.758V11.45C34.4702 11.1607 34.3769 10.9087 34.2182 10.694C34.0595 10.47 33.8542 10.2973 33.6022 10.176C33.3595 10.0453 33.0889 9.98 32.7902 9.98C32.3329 9.98 31.9455 10.0687 31.6282 10.246C31.3202 10.4233 31.0869 10.68 30.9282 11.016C30.7695 11.3427 30.6902 11.7533 30.6902 12.248C30.6902 12.724 30.7882 13.1393 30.9842 13.494C31.1895 13.8487 31.4742 14.124 31.8382 14.32C32.2115 14.5067 32.6455 14.6 33.1402 14.6C33.4855 14.6 33.8029 14.544 34.0922 14.432C34.3815 14.32 34.6942 14.1193 35.0302 13.83L35.8842 15.02C35.6322 15.2533 35.3429 15.454 35.0162 15.622C34.6989 15.7807 34.3629 15.9067 34.0082 16C33.6535 16.0933 33.3035 16.14 32.9582 16.14ZM37.7033 16V8.622H39.3973L39.4253 10.974L39.1873 10.442C39.29 10.0687 39.4673 9.73267 39.7193 9.434C39.9713 9.13533 40.2606 8.902 40.5873 8.734C40.9233 8.55667 41.2733 8.468 41.6373 8.468C41.796 8.468 41.9453 8.482 42.0853 8.51C42.2346 8.538 42.356 8.57067 42.4493 8.608L41.9873 10.498C41.8846 10.442 41.7586 10.3953 41.6093 10.358C41.46 10.3207 41.3106 10.302 41.1613 10.302C40.928 10.302 40.704 10.3487 40.4893 10.442C40.284 10.526 40.102 10.6473 39.9433 10.806C39.7846 10.9647 39.6586 11.1513 39.5653 11.366C39.4813 11.5713 39.4393 11.8047 39.4393 12.066V16H37.7033ZM46.7394 16.14C45.9648 16.14 45.2788 15.9767 44.6814 15.65C44.0934 15.3233 43.6314 14.88 43.2954 14.32C42.9688 13.7507 42.8054 13.102 42.8054 12.374C42.8054 11.7953 42.8988 11.268 43.0854 10.792C43.2721 10.316 43.5288 9.90533 43.8554 9.56C44.1914 9.20533 44.5881 8.93467 45.0454 8.748C45.5121 8.552 46.0208 8.454 46.5714 8.454C47.0568 8.454 47.5094 8.54733 47.9294 8.734C48.3494 8.92067 48.7134 9.17733 49.0214 9.504C49.3294 9.82133 49.5628 10.204 49.7214 10.652C49.8894 11.0907 49.9688 11.5713 49.9594 12.094L49.9454 12.696H43.9674L43.6454 11.52H48.5034L48.2794 11.758V11.45C48.2514 11.1607 48.1581 10.9087 47.9994 10.694C47.8408 10.47 47.6354 10.2973 47.3834 10.176C47.1408 10.0453 46.8701 9.98 46.5714 9.98C46.1141 9.98 45.7268 10.0687 45.4094 10.246C45.1014 10.4233 44.8681 10.68 44.7094 11.016C44.5508 11.3427 44.4714 11.7533 44.4714 12.248C44.4714 12.724 44.5694 13.1393 44.7654 13.494C44.9708 13.8487 45.2554 14.124 45.6194 14.32C45.9928 14.5067 46.4268 14.6 46.9214 14.6C47.2668 14.6 47.5841 14.544 47.8734 14.432C48.1628 14.32 48.4754 14.1193 48.8114 13.83L49.6654 15.02C49.4134 15.2533 49.1241 15.454 48.7974 15.622C48.4801 15.7807 48.1441 15.9067 47.7894 16C47.4348 16.0933 47.0848 16.14 46.7394 16.14ZM54.4526 16.14C53.7992 16.14 53.2112 15.9767 52.6886 15.65C52.1752 15.314 51.7646 14.8613 51.4566 14.292C51.1579 13.7133 51.0086 13.0507 51.0086 12.304C51.0086 11.5667 51.1579 10.9087 51.4566 10.33C51.7552 9.75133 52.1612 9.29867 52.6746 8.972C53.1972 8.636 53.7852 8.468 54.4386 8.468C54.7932 8.468 55.1339 8.524 55.4606 8.636C55.7966 8.748 56.0952 8.902 56.3566 9.098C56.6179 9.28467 56.8232 9.49467 56.9726 9.728C57.1312 9.96133 57.2199 10.204 57.2386 10.456L56.7766 10.512V5.64H58.4986V16H56.8326L56.7906 14.264L57.1266 14.292C57.1172 14.5253 57.0332 14.7493 56.8746 14.964C56.7252 15.1787 56.5292 15.3747 56.2866 15.552C56.0439 15.7293 55.7592 15.874 55.4326 15.986C55.1152 16.0887 54.7886 16.14 54.4526 16.14ZM54.7886 14.684C55.1899 14.684 55.5446 14.5813 55.8526 14.376C56.1606 14.1707 56.3986 13.8907 56.5666 13.536C56.7439 13.1813 56.8326 12.7707 56.8326 12.304C56.8326 11.8467 56.7439 11.4407 56.5666 11.086C56.3986 10.722 56.1606 10.442 55.8526 10.246C55.5446 10.0407 55.1899 9.938 54.7886 9.938C54.3872 9.938 54.0326 10.0407 53.7246 10.246C53.4166 10.442 53.1739 10.722 52.9966 11.086C52.8286 11.4407 52.7446 11.8467 52.7446 12.304C52.7446 12.7707 52.8286 13.1813 52.9966 13.536C53.1739 13.8907 53.4166 14.1707 53.7246 14.376C54.0326 14.5813 54.3872 14.684 54.7886 14.684ZM68.6425 16.14C68.3159 16.14 67.9939 16.0933 67.6765 16C67.3685 15.8973 67.0885 15.762 66.8365 15.594C66.5845 15.426 66.3745 15.2393 66.2065 15.034C66.0385 14.8193 65.9265 14.6047 65.8705 14.39L66.2765 14.208L66.2345 15.972H64.5685V5.64H66.2905V10.33L65.9825 10.19C66.0292 9.966 66.1319 9.756 66.2905 9.56C66.4585 9.35467 66.6639 9.17267 66.9065 9.014C67.1492 8.846 67.4152 8.71533 67.7045 8.622C67.9939 8.51933 68.2879 8.468 68.5865 8.468C69.2492 8.468 69.8325 8.63133 70.3365 8.958C70.8499 9.28467 71.2512 9.73733 71.5405 10.316C71.8392 10.8947 71.9885 11.5527 71.9885 12.29C71.9885 13.0367 71.8439 13.6993 71.5545 14.278C71.2652 14.8567 70.8639 15.314 70.3505 15.65C69.8465 15.9767 69.2772 16.14 68.6425 16.14ZM68.2785 14.628C68.6705 14.628 69.0205 14.53 69.3285 14.334C69.6365 14.1287 69.8792 13.8533 70.0565 13.508C70.2339 13.1533 70.3225 12.7473 70.3225 12.29C70.3225 11.842 70.2339 11.4453 70.0565 11.1C69.8885 10.7547 69.6505 10.484 69.3425 10.288C69.0345 10.092 68.6799 9.994 68.2785 9.994C67.8772 9.994 67.5225 10.092 67.2145 10.288C66.9065 10.484 66.6639 10.7547 66.4865 11.1C66.3092 11.4453 66.2205 11.842 66.2205 12.29C66.2205 12.7473 66.3092 13.1533 66.4865 13.508C66.6639 13.8533 66.9065 14.1287 67.2145 14.334C67.5225 14.53 67.8772 14.628 68.2785 14.628ZM74.3702 19.22L75.9382 15.594L75.9522 16.742L72.3122 8.622H74.3002L76.3302 13.438C76.3955 13.5593 76.4609 13.7227 76.5262 13.928C76.5915 14.124 76.6475 14.32 76.6942 14.516L76.3442 14.628C76.4095 14.4507 76.4795 14.264 76.5542 14.068C76.6289 13.8627 76.6989 13.6527 76.7642 13.438L78.5002 8.622H80.5022L77.4222 16L76.1622 19.22H74.3702Z" fill="#633821" fill-opacity="0.6"/>
<path d="M92.2787 18.399C91.8664 18.399 91.4578 18.2843 91.0973 18.0675C90.7256 17.8442 90.4026 17.5103 90.1636 17.102C89.8074 16.4936 89.647 15.7164 89.724 14.9702C89.8064 14.1708 89.4553 13.5905 89.2386 13.3157C89.1549 13.2094 89.0608 13.1079 88.9696 13.0097C88.7996 12.826 88.6237 12.6363 88.5167 12.415C88.4354 12.2469 88.4101 12.0487 88.4477 11.8712C88.4877 11.6812 88.5964 11.5387 88.7534 11.4696C88.8232 11.4389 88.8984 11.4233 88.9764 11.4233C89.2836 11.4233 89.5918 11.6603 89.7778 11.8821C90.1803 12.3618 90.4347 12.8567 90.5341 13.3529C90.5924 13.6446 90.6069 13.9062 90.6209 14.1589C90.6544 14.7635 90.6833 15.2856 91.3254 15.8648C91.7295 16.2293 92.2414 16.4382 92.7296 16.4382C93.3128 16.4382 93.8507 16.1606 94.3285 15.6132C94.7355 15.147 94.9593 14.5561 94.994 13.8566C95.0231 13.2658 94.9127 12.6042 94.6747 11.9433C94.2969 10.8953 93.5645 9.95024 92.3695 8.96951C92.2227 8.849 92.0709 8.72868 91.9241 8.6124C91.4605 8.24495 90.9808 7.86501 90.5891 7.42271C90.0025 6.76052 89.6111 6.1104 89.4261 5.49023C89.2684 4.96215 89.2596 4.45635 89.3996 3.98681C89.6571 3.12408 90.385 2.53211 90.9523 2.34732C91.1578 2.28036 91.3611 2.24658 91.5568 2.24658C91.9792 2.24658 92.3549 2.39913 92.6738 2.70021C93.0469 3.05232 93.2873 3.55448 93.3508 4.11422C93.3586 4.18233 93.3659 4.25025 93.3733 4.31799C93.4475 4.99593 93.5175 5.63645 93.8478 6.26199C93.8801 6.32282 93.9216 6.39305 93.9698 6.47441C94.1667 6.80637 94.4642 7.30815 94.345 7.64031C94.3008 7.76331 94.2051 7.85388 94.0524 7.9172C93.9612 7.955 93.8706 7.9742 93.7832 7.9742C93.5115 7.9742 93.2645 7.78863 93.1056 7.46493C92.845 6.93398 92.7896 6.39209 92.7309 5.81816C92.7011 5.5263 92.6701 5.22446 92.6095 4.92743C92.5405 4.58951 92.329 4.38785 92.0438 4.38785C91.8668 4.38785 91.6868 4.46747 91.5494 4.6064C91.3841 4.77372 91.3042 5.00015 91.325 5.24385C91.3899 6.00947 91.8675 6.67761 92.374 7.28589C93.245 8.33168 93.8595 9.35309 94.5102 10.4347L94.5388 10.4823C94.9505 11.1666 95.2248 11.8334 95.3769 12.5209C95.6166 13.6028 95.5459 14.7111 95.1669 15.8154C94.8809 16.649 94.4447 17.3268 93.906 17.7759C93.4167 18.1836 92.8534 18.399 92.2787 18.399Z" fill="#633821" fill-opacity="0.6"/>
<path d="M108.746 4.8882C108.575 4.8882 108.407 4.82316 108.26 4.70034C108.054 4.52688 107.932 4.245 107.936 3.94662C107.938 3.6937 108.024 3.42181 108.19 3.13819C108.395 2.78878 108.662 2.52838 108.962 2.38524C109.135 2.30254 109.327 2.25879 109.517 2.25879C109.708 2.25879 109.882 2.30292 110.029 2.38639C110.357 2.57386 110.507 2.97106 110.363 3.27195C110.27 3.46632 110.112 3.54826 109.944 3.63519C109.844 3.6868 109.742 3.73995 109.646 3.81862C109.469 3.96561 109.455 4.05504 109.435 4.19031C109.428 4.23636 109.42 4.28875 109.404 4.35207C109.324 4.67271 109.059 4.8882 108.746 4.8882Z" fill="#633821" fill-opacity="0.6"/>
<path d="M109.402 18.4048C109.317 18.4048 109.235 18.3891 109.157 18.3583C108.967 18.2827 108.832 18.1182 108.776 17.8948C108.724 17.6868 108.744 17.452 108.832 17.2503C108.958 16.9632 109.165 16.7137 109.365 16.4725C109.559 16.2396 109.759 15.9987 109.891 15.7203C110.413 14.618 110.44 13.3775 109.968 12.2269C109.914 12.0941 109.859 11.961 109.803 11.8278C109.359 10.764 108.901 9.6639 108.898 8.50203C108.896 7.51132 109.228 6.56494 109.857 5.76553C110.074 5.49096 110.436 5.19775 110.805 5.19775C110.891 5.19775 110.974 5.21386 111.052 5.24553C111.457 5.40997 111.544 5.95243 111.369 6.35578C111.289 6.54172 111.14 6.73437 110.967 6.95734C110.293 7.82793 109.275 9.1435 110.481 12.3683C110.634 12.7753 110.912 13.7513 110.99 14.8268C111.082 16.1101 110.861 17.1493 110.348 17.8321C110.15 18.0966 109.782 18.4048 109.402 18.4048Z" fill="#633821" fill-opacity="0.6"/>
<path d="M98.0648 18.4156C97.8433 18.4156 97.5063 18.2912 97.1583 17.6987C96.6854 16.8937 96.4676 15.8114 96.6033 14.9417C96.783 13.7903 97.1308 12.8658 97.6983 12.0319C98.2045 11.2881 98.8217 10.7088 99.4752 10.0956C99.7317 9.85495 99.997 9.60607 100.26 9.34242C100.431 9.17127 100.985 8.58429 100.949 8.22258C100.94 8.13681 100.899 8.06831 100.828 8.01957C100.784 7.99002 100.74 7.97505 100.696 7.97505C100.561 7.97505 100.447 8.10745 100.301 8.27478C100.157 8.44132 99.9773 8.64856 99.7199 8.79862C99.4504 8.95598 99.0488 9.0498 98.6457 9.0498C98.2895 9.0498 97.7616 8.97612 97.269 8.62477C96.7793 8.27535 96.4302 7.72924 96.2317 7.00122C95.9863 6.10128 96.0023 5.13495 96.2754 4.34994C96.4382 3.88212 96.6893 3.47973 97.0218 3.15391C97.3951 2.78818 97.8724 2.51857 98.4408 2.3524C98.6283 2.29752 98.848 2.26855 99.0757 2.26855C99.4476 2.26855 100.177 2.35009 100.885 2.89639C101.575 3.42888 102.061 4.25322 102.33 5.34621C102.445 5.81096 102.557 6.37127 102.52 7.00277C102.473 7.79717 102.194 8.51636 101.691 9.1398C101.363 9.54564 100.856 9.8916 100.319 10.2579C99.6671 10.7031 98.9274 11.2076 98.3999 11.9093C97.795 12.7139 97.5552 13.661 97.6669 14.8047C97.7365 15.5186 98.2225 16.3292 98.4837 16.7645C98.5396 16.8578 98.5839 16.9316 98.6077 16.978C98.6613 17.0821 98.7865 17.3558 98.794 17.6431C98.8023 17.9738 98.6527 18.2117 98.3488 18.3502C98.2542 18.3932 98.1583 18.4156 98.0648 18.4156ZM98.449 3.56724C98.095 3.56724 97.7365 3.73801 97.4895 4.0243C97.2595 4.29064 97.1187 4.65753 97.0817 5.08524C97.0517 5.43237 97.0961 5.73651 97.2136 5.98884C97.355 6.29298 97.6168 6.52785 97.9135 6.61726C98.0123 6.64701 98.109 6.66197 98.2014 6.66197C98.416 6.66197 98.609 6.5787 98.7449 6.42711C98.9128 6.24002 98.9818 5.96313 98.9297 5.68642C98.8886 5.46845 98.8957 5.34121 98.9568 5.20018C98.9802 5.14645 99.0128 5.08755 99.057 5.02038C99.0816 4.98297 99.1079 4.94517 99.1336 4.9089C99.2486 4.74522 99.3673 4.57578 99.3673 4.35819C99.3673 3.97864 99.0122 3.6271 98.5763 3.57472C98.5344 3.56973 98.4917 3.56724 98.449 3.56724Z" fill="#633821" fill-opacity="0.6"/>
<path d="M115.404 18.4154C115.176 18.4154 114.956 18.3864 114.769 18.3315C114.201 18.1653 113.723 17.8958 113.35 17.5301C113.018 17.2041 112.766 16.8018 112.604 16.334C112.331 15.549 112.315 14.5826 112.56 13.6827C112.758 12.9547 113.107 12.4084 113.597 12.0592C114.09 11.7078 114.618 11.6341 114.974 11.6341C115.377 11.6341 115.779 11.728 116.048 11.8853C116.306 12.0356 116.485 12.2426 116.63 12.4092C116.775 12.5767 116.89 12.7089 117.024 12.7089C117.068 12.7089 117.113 12.6939 117.156 12.6644C117.227 12.6154 117.268 12.5471 117.277 12.4613C117.314 12.0994 116.759 11.5127 116.588 11.3415C116.325 11.0778 116.06 10.829 115.803 10.5883C115.15 9.97507 114.532 9.39597 114.027 8.65223C113.459 7.81828 113.111 6.89358 112.932 5.74246C112.796 4.87264 113.014 3.79059 113.487 2.98545C113.835 2.3929 114.172 2.26855 114.393 2.26855C114.487 2.26855 114.582 2.29042 114.677 2.33361C114.981 2.47195 115.13 2.7099 115.122 3.04071C115.114 3.32815 114.989 3.60159 114.936 3.70578C114.916 3.74434 114.884 3.80115 114.843 3.8733C114.611 4.28394 114.129 5.1382 114.056 5.87908C113.944 7.02579 114.18 7.97448 114.775 8.77963C115.295 9.48213 116.025 9.98717 116.67 10.4327C117.196 10.7967 117.693 11.1406 118.019 11.5439C118.522 12.1676 118.801 12.8866 118.847 13.681C118.884 14.3127 118.772 14.8728 118.658 15.3375C118.389 16.4306 117.903 17.2548 117.213 17.7873C116.505 18.3335 115.776 18.4154 115.404 18.4154ZM114.53 14.0221C114.438 14.0221 114.341 14.0373 114.242 14.0669C113.945 14.1563 113.684 14.3911 113.542 14.6953C113.425 14.9476 113.38 15.2517 113.41 15.5988C113.447 16.0266 113.588 16.3932 113.818 16.6598C114.065 16.9461 114.424 17.1168 114.778 17.1168C114.82 17.1168 114.863 17.1144 114.905 17.1092C115.341 17.0567 115.696 16.7052 115.696 16.3257C115.696 16.1081 115.577 15.9387 115.462 15.7751C115.437 15.7386 115.41 15.701 115.386 15.6633C115.342 15.5961 115.309 15.5375 115.285 15.4835C115.224 15.3425 115.217 15.2153 115.258 14.9973C115.311 14.7206 115.242 14.4437 115.073 14.2566C114.938 14.1052 114.745 14.0221 114.53 14.0221Z" fill="#633821" fill-opacity="0.6"/>
<path d="M103.918 18.3986C103.162 18.3986 102.456 18.1274 101.981 17.6546C101.291 16.9685 100.816 15.9875 100.677 14.9629C100.524 13.8329 100.527 12.8223 100.685 11.8736C100.737 11.5679 100.851 11.2818 101.007 11.0678C101.193 10.8124 101.422 10.6741 101.69 10.6566C101.714 10.6551 101.739 10.6541 101.763 10.6541C102.017 10.6541 102.226 10.7447 102.383 10.9232C102.685 11.2649 102.734 11.85 102.652 12.2487C102.598 12.512 102.519 12.7835 102.442 13.046C102.25 13.703 102.052 14.3823 102.192 15.0639C102.29 15.5402 102.59 16.0223 102.956 16.2927C103.187 16.4631 103.516 16.5741 103.815 16.5827C103.842 16.5834 103.868 16.5837 103.895 16.5837C104.342 16.5837 104.761 16.4769 105.14 16.2662C105.479 16.0782 105.788 15.8066 106.058 15.4592C106.67 14.6734 106.921 13.7287 107.016 13.2358C107.235 12.1011 107.134 11.0887 106.697 10.0495C106.492 9.56056 106.126 8.98759 105.773 8.43343C105.503 8.01147 105.249 7.61311 105.07 7.26273C104.844 6.81832 104.7 6.41978 104.736 5.91915C104.749 5.74358 104.844 5.17041 105.534 5.17041C105.544 5.17041 105.555 5.17041 105.566 5.1708C105.795 5.17654 105.984 5.27883 106.113 5.46669C106.239 5.64936 106.303 5.90246 106.301 6.19854C106.297 6.56715 106.329 7.00311 106.383 7.33604C106.469 7.86544 106.614 8.31849 106.767 8.79801C106.82 8.96112 106.874 9.12978 106.926 9.30478C107.046 9.70333 107.173 10.1071 107.296 10.4976C107.366 10.7209 107.436 10.9443 107.505 11.168C107.888 12.403 107.908 13.8095 107.562 15.0266C107.167 16.4123 106.312 17.5545 105.273 18.0824C104.867 18.2891 104.397 18.3986 103.918 18.3986Z" fill="#633821" fill-opacity="0.6"/>
<path d="M126.54 12.68V11.6H132.552V12.68H126.54ZM128.904 14.996V9.2H130.164V14.996H128.904Z" fill="#633821" fill-opacity="0.6"/>
<path d="M151.518 9.6315L155.213 6.27379L153.811 5L150.817 7.72079L147.822 5L146.42 6.27379L150.116 9.6315C150.309 9.80739 150.563 9.8953 150.817 9.8953C151.07 9.8953 151.324 9.80741 151.518 9.6315ZM156.868 13.2185L153.873 10.4977L156.868 7.77684L155.466 6.50305L151.77 9.86079C151.383 10.2125 151.383 10.7828 151.77 11.1346L155.466 14.4923L156.868 13.2185ZM150.812 13.2792L153.806 16L155.208 14.7262L151.513 11.3685C151.125 11.0168 150.498 11.0168 150.111 11.3685L146.415 14.7262L147.817 16L150.812 13.2792ZM149.858 11.1392C150.044 10.9703 150.149 10.7412 150.149 10.5023C150.149 10.2635 150.044 10.0344 149.858 9.86547L146.163 6.50775L144.761 7.78154L147.755 10.5023L144.761 13.2232L146.163 14.497L149.858 11.1392ZM144.711 15.5582H141.603L141.379 14.2741H139.353L139.108 15.5582H136L138.675 5.44184H142.353L144.711 15.5582ZM141.026 12.1053L140.831 10.926C140.826 10.9217 140.817 10.8626 140.802 10.7488C140.793 10.6532 140.742 10.273 140.651 9.60922C140.641 9.53483 140.63 9.43333 140.615 9.30444C140.601 9.17555 140.581 9.01258 140.557 8.81601L140.463 7.85983C140.454 7.95166 140.441 8.05423 140.424 8.16781C140.407 8.28141 140.389 8.40571 140.37 8.54131C140.336 8.812 140.312 8.99996 140.298 9.10468C140.283 9.20912 140.274 9.27276 140.269 9.29479L140.06 10.5195L139.757 12.1053H141.026ZM163.285 15.5582V13.1277H160.704V11.5811H163.018V9.29487H160.704V7.8207H163.285V5.44195H157.697V15.5581L163.285 15.5582ZM169.2 13.1277H166.943V5.44195H163.936V15.5581H169.2V13.1277ZM178.433 15.5582H175.326L175.102 14.2742H173.076L172.83 15.5582H169.722L172.398 5.44184H176.075L178.433 15.5582ZM174.749 12.1054L174.554 10.926C174.549 10.9217 174.539 10.8627 174.525 10.7488C174.516 10.6532 174.465 10.273 174.373 9.60925C174.364 9.53486 174.352 9.43336 174.337 9.30447C174.323 9.17557 174.304 9.01261 174.28 8.81604L174.186 7.85986C174.176 7.95168 174.163 8.05426 174.146 8.16783C174.129 8.28144 174.111 8.40574 174.092 8.54134C174.058 8.81202 174.034 8.99998 174.02 9.1047C174.005 9.20915 173.996 9.27279 173.992 9.29481L173.782 10.5195L173.479 12.1054H174.749ZM187 15.5582H183.748L182.263 11.9547C182.249 11.8935 182.223 11.8127 182.187 11.7123C182.151 11.6118 182.106 11.4918 182.054 11.3519L182.075 12.0203V15.5582H179.082V5.44184H182.162C183.517 5.44184 184.531 5.68458 185.205 6.16952C186.06 6.78979 186.488 7.67214 186.488 8.81601C186.488 10.0394 185.914 10.8847 184.765 11.3519L187 15.5582ZM183.503 8.84879C183.503 8.09348 183.068 7.71566 182.198 7.71566H182.089V10.1264H182.291C182.637 10.1264 182.926 10.0067 183.157 9.76605C183.388 9.52628 183.503 9.22043 183.503 8.84879Z" fill="#633821" fill-opacity="0.6"/>
</svg>
