<svg width="21" height="20" viewBox="0 0 21 20" fill="none" xmlns="http://www.w3.org/2000/svg">
<path fill-rule="evenodd" clip-rule="evenodd" d="M15.6916 6.4342C12.23 4.85857 8.7711 4.85897 5.30803 6.4308C6.2572 5.69905 7.33543 5.25689 8.46692 4.91891C8.37842 4.75015 8.25125 4.71341 8.0816 4.72812C6.85221 4.83477 5.73623 5.25273 4.72211 5.94745C4.61749 6.01909 4.52087 6.1239 4.46028 6.235C3.96466 7.14372 3.58134 8.10043 3.27484 9.08803C2.852 10.4503 2.59701 11.8413 2.5815 13.2709C2.58066 13.3486 2.60113 13.4487 2.65084 13.5015C3.64505 14.5577 4.878 15.105 6.31423 15.2566C6.69008 15.2962 6.92811 15.2016 7.13059 14.9009C7.28764 14.6675 7.47916 14.4572 7.66224 14.2282C6.47476 13.8074 5.54827 13.2336 5.37202 12.8353C8.78722 14.7569 12.2137 14.7602 15.649 12.8343C15.0413 13.5442 14.2404 13.9447 13.328 14.229C13.5839 14.5392 13.8315 14.8253 14.0615 15.1247C14.1602 15.2533 14.269 15.282 14.4198 15.2726C15.9366 15.1786 17.2584 14.6499 18.3153 13.5316C18.371 13.4727 18.4183 13.3719 18.413 13.2945C18.3702 12.6702 18.3456 12.0423 18.2557 11.4242C17.9871 9.57566 17.3896 7.83155 16.51 6.18456C16.4654 6.10102 16.3907 6.02366 16.312 5.96973C15.2928 5.27164 14.1757 4.8393 12.9386 4.73028C12.7631 4.71478 12.6233 4.73793 12.5402 4.8909C13.0836 5.10092 13.6341 5.29856 14.1719 5.52565C14.7164 5.7555 15.2276 6.0495 15.6916 6.4342ZM10.4974 2.58461e-07C16.0163 -0.00124176 20.4962 4.47398 20.5 9.99213C20.5039 15.5184 16.0181 20.0043 10.4924 20C4.97523 19.9958 0.498721 15.5145 0.5 9.99693C0.50128 4.47898 4.97927 0.00124227 10.4974 2.58461e-07Z" fill="#8F8F8F" fill-opacity="0.8"/>
<path fill-rule="evenodd" clip-rule="evenodd" d="M14.3173 10.7918C14.3001 11.5789 13.676 12.1915 12.9092 12.1738C12.1493 12.1563 11.5383 11.5181 11.553 10.7572C11.5683 9.96444 12.2069 9.34724 12.9985 9.36006C13.7269 9.37188 14.334 10.0309 14.3173 10.7918Z" fill="#8F8F8F" fill-opacity="0.8"/>
<path fill-rule="evenodd" clip-rule="evenodd" d="M6.68162 10.7354C6.70106 9.96595 7.32753 9.34002 8.05695 9.36137C8.84487 9.38441 9.46155 10.02 9.44771 10.7948C9.43379 11.5725 8.793 12.1986 8.03367 12.1762C7.26127 12.1535 6.66195 11.5149 6.68162 10.7354Z" fill="#8F8F8F" fill-opacity="0.8"/>
</svg>
