<svg width="21" height="20" viewBox="0 0 21 20" fill="none" xmlns="http://www.w3.org/2000/svg">
<path d="M10.5 0C4.97713 0 0.5 4.47713 0.5 10C0.5 15.5229 4.97713 20 10.5 20C16.0229 20 20.5 15.5229 20.5 10C20.5 4.47713 16.0229 0 10.5 0ZM6.77713 14.3179C4.39731 14.3184 2.46413 12.3861 2.4713 10.013C2.47848 7.64439 4.40314 5.72691 6.77309 5.72735C9.14305 5.7278 11.0614 7.64798 11.0623 10.0206C11.0632 12.3928 9.14395 14.3175 6.77713 14.3179ZM15.7031 12.7278C15.5179 13.2117 15.2511 13.6525 14.8417 13.9861C14.287 14.4386 13.6574 14.4296 13.1143 13.9641C12.6099 13.5314 12.3417 12.9534 12.1323 12.3413C12.0139 11.9955 11.9323 11.6404 11.8767 11.2798C11.8117 10.8601 11.7771 10.4368 11.7803 9.80628C11.796 8.95874 11.9511 7.93587 12.4314 6.98296C12.6283 6.59282 12.8744 6.24081 13.2372 5.9852C13.7444 5.6278 14.296 5.63991 14.7879 6.01794C15.2919 6.40538 15.5879 6.94126 15.7848 7.52421C16.3722 9.26457 16.3614 11.0054 15.7031 12.7274V12.7278ZM17.9919 13.9897C17.935 14.1314 17.8767 14.313 17.691 14.309C17.5076 14.3049 17.4569 14.1202 17.396 13.9803C17.2336 13.609 17.1605 13.213 17.104 12.8152C16.8556 11.0655 16.8538 9.31256 17.0574 7.55919C17.1148 7.06457 17.1906 6.56995 17.3785 6.10404C17.4404 5.95067 17.4906 5.74126 17.6919 5.73677C17.8969 5.73229 17.9471 5.9417 18.0112 6.09507C18.2139 6.58072 18.2825 7.09955 18.3471 7.61525C18.448 8.42108 18.4825 9.23229 18.4843 10.1475C18.4682 11.1843 18.4233 12.3215 18.1704 13.439C18.1278 13.6265 18.0641 13.8108 17.9924 13.9897H17.9919Z" fill="#8F8F8F" fill-opacity="0.8"/>
</svg>
