<svg width="21" height="20" viewBox="0 0 21 20" fill="none" xmlns="http://www.w3.org/2000/svg">
<path fill-rule="evenodd" clip-rule="evenodd" d="M10.4772 0H10.5228C16.0331 0 20.5 4.46696 20.5 9.97723V10.0228C20.5 15.533 16.0331 20 10.5228 20H10.4772C4.96695 20 0.5 15.533 0.5 10.0228V9.97723C0.5 4.46696 4.96695 0 10.4772 0ZM4.3713 9.61927C4.34398 9.63188 4.31594 9.64519 4.28791 9.65921L4.28652 9.6585C4.17091 9.71736 4.06089 9.78953 4.00414 9.90375C3.91375 10.0859 3.99992 10.3158 4.14987 10.4524C4.29982 10.589 4.50022 10.6542 4.69432 10.7145C5.05938 10.8287 5.42586 10.9394 5.79302 11.0473C6.23096 11.1762 6.68641 11.3023 7.13906 11.2379C7.64496 11.1664 8.085 10.8665 8.50472 10.575C9.1477 10.1285 9.79051 9.68181 10.4333 9.23512C11.0766 8.78807 11.72 8.34102 12.3635 7.89415C12.4658 7.82338 12.5947 7.74911 12.7068 7.80376C12.8953 7.89555 12.7874 8.18284 12.65 8.3419C12.2047 8.85807 11.6893 9.30823 11.1743 9.75802C10.5637 10.2913 9.95371 10.824 9.46187 11.4656C9.35256 11.6078 9.24536 11.7676 9.24396 11.947C9.24116 12.2448 9.51723 12.4592 9.76527 12.6232C10.2873 12.9688 10.8095 13.3145 11.3317 13.6602C11.8532 14.0054 12.3747 14.3506 12.896 14.6958C13.1475 14.8619 13.404 15.0308 13.6948 15.1113C13.9856 15.1912 14.3205 15.1702 14.5559 14.9817C14.8341 14.7589 14.907 14.3721 14.9602 14.0196C15.3052 11.7532 15.6496 9.4862 15.994 7.21962L16.1318 6.31268C16.1879 5.94411 16.225 5.51388 15.9601 5.25182C15.9048 5.19647 15.8382 5.15232 15.766 5.12079C15.5572 5.0304 15.3169 5.04722 15.099 5.08856C15.0434 5.09907 14.9885 5.11369 14.9338 5.12828C14.8756 5.14384 14.8174 5.15936 14.7584 5.16984C14.66 5.1871 14.5608 5.23451 14.4654 5.2801C14.4291 5.29745 14.3933 5.31454 14.3584 5.3296C14.0732 5.45152 13.7878 5.57362 13.5024 5.69571C13.2171 5.81781 12.9317 5.93991 12.6465 6.06183C12.3614 6.18375 12.076 6.30585 11.7906 6.42794C11.5053 6.55004 11.2199 6.67213 10.9347 6.79405C10.6496 6.91598 10.3642 7.03807 10.0788 7.16017C9.79348 7.28227 9.50812 7.40436 9.22293 7.52628C8.93792 7.64813 8.65273 7.77015 8.36754 7.89218C8.08201 8.01435 7.79647 8.13652 7.51112 8.25851L6.65557 8.62498L6.22745 8.80786C6.18584 8.82599 6.14399 8.84387 6.10204 8.8618C6.07264 8.87436 6.04319 8.88695 6.01373 8.89965C5.99516 8.90771 5.97658 8.9156 5.958 8.92349C5.93944 8.93137 5.92088 8.93925 5.90232 8.9473C5.89425 8.95053 5.88412 8.95596 5.87325 8.96179C5.8511 8.97368 5.82583 8.98724 5.80844 8.98724L5.78274 8.99825C5.31061 9.20059 4.83791 9.40317 4.3713 9.61927Z" fill="#8F8F8F" fill-opacity="0.8"/>
</svg>
