<svg width="152" height="23" viewBox="0 0 152 23" fill="none" xmlns="http://www.w3.org/2000/svg">
    <g clip-path="url(#clip0_603_238202)">
        <path
            d="M31.6216 3.16443H42.7833V5.62689H34.0954V19.837H31.6216V3.16443ZM35.5021 9.92913H42.7833V12.3916H35.5021V9.92913Z"
            fill="white" />
        <path
            d="M44.9399 12.0746C44.9399 11.2693 45.1367 10.5348 45.5315 9.86968C45.9263 9.20595 46.4556 8.67524 47.1208 8.2804C47.7845 7.88556 48.5204 7.68884 49.3257 7.68884H51.975C52.7802 7.68884 53.5147 7.88697 54.1799 8.2804C54.8436 8.67524 55.3743 9.20453 55.7691 9.86968C56.164 10.5334 56.3607 11.2693 56.3607 12.0746V15.4513C56.3607 16.2565 56.164 16.991 55.7691 17.6562C55.3743 18.3199 54.845 18.8506 54.1799 19.2455C53.5147 19.6403 52.7802 19.837 51.975 19.837H49.3257C48.5204 19.837 47.7859 19.6403 47.1208 19.2455C46.457 18.8506 45.9263 18.3213 45.5315 17.6562C45.1367 16.9924 44.9399 16.2565 44.9399 15.4513V12.0746ZM47.4137 15.4286C47.4137 15.9607 47.602 16.415 47.977 16.7943C48.352 17.1736 48.8021 17.3632 49.3257 17.3632H51.975C52.5071 17.3632 52.9585 17.1736 53.3293 16.7943C53.7001 16.415 53.8869 15.9593 53.8869 15.4286V12.0986C53.8869 11.5665 53.7015 11.1122 53.3293 10.733C52.9585 10.3537 52.5071 10.164 51.975 10.164H49.3257C48.8021 10.164 48.352 10.3537 47.977 10.733C47.602 11.1122 47.4137 11.5679 47.4137 12.0986V15.4286Z"
            fill="white" />
        <path
            d="M58.5146 7.69031H60.9884V15.4174C60.9884 15.965 61.1752 16.4292 61.5517 16.8128C61.9267 17.1963 62.3768 17.3873 62.9004 17.3873H67.204V7.69031H69.6778V17.3746C69.6778 18.0553 69.4358 18.6355 68.9504 19.1153C68.4664 19.5965 67.8763 19.8371 67.18 19.8371H62.9004C62.0951 19.8371 61.3606 19.6403 60.6955 19.2455C60.0318 18.8507 59.5011 18.3214 59.1076 17.6562C58.7128 16.9925 58.5161 16.2566 58.5161 15.4513V7.69031H58.5146Z"
            fill="white" />
        <path
            d="M71.832 10.1513C71.832 9.47201 72.0768 8.89036 72.5651 8.4106C73.0533 7.92943 73.642 7.68884 74.3298 7.68884H78.6094C79.4147 7.68884 80.1492 7.88697 80.8129 8.2804C81.4766 8.67524 82.0073 9.20453 82.4022 9.86968C82.797 10.5334 82.9937 11.2693 82.9937 12.0746V19.837H80.52V12.11C80.52 11.5623 80.3346 11.0981 79.9624 10.7146C79.5902 10.331 79.1401 10.14 78.608 10.14H74.3044V19.837H71.8306V10.1513H71.832Z"
            fill="white" />
        <path
            d="M85.1489 12.0746C85.1489 11.2693 85.3456 10.5348 85.7405 9.8697C86.1353 9.20596 86.6646 8.67526 87.3298 8.28041C87.9935 7.88557 88.7294 7.68886 89.5347 7.68886H92.4302V10.1626H89.5347C89.011 10.1626 88.561 10.3523 88.186 10.7316C87.8109 11.1108 87.6227 11.5665 87.6227 12.0972V15.4499C87.6227 15.9735 87.8095 16.4235 88.186 16.7986C88.5624 17.1736 89.011 17.3618 89.5347 17.3618H93.8383V3.16443H96.3121V17.3632C96.3121 18.044 96.0701 18.6256 95.5847 19.1096C95.1007 19.595 94.5176 19.837 93.8383 19.837H89.5347C88.7294 19.837 87.9949 19.6403 87.3298 19.2455C86.666 18.8506 86.1353 18.3227 85.7405 17.6633C85.3456 17.0024 85.1489 16.2735 85.1489 15.4768V12.076V12.0746Z"
            fill="white" />
        <path
            d="M98.4678 12.0519C98.4678 11.2467 98.6645 10.5164 99.0593 9.85975C99.4542 9.20309 99.9835 8.67805 100.649 8.28321C101.312 7.88836 102.048 7.69165 102.852 7.69165H109.63V19.8384H107.156V10.164H102.852C102.328 10.164 101.878 10.3494 101.503 10.7216C101.128 11.0924 100.94 11.5439 100.94 12.076V15.43C100.94 15.9621 101.128 16.4164 101.503 16.7957C101.878 17.175 102.328 17.3646 102.852 17.3646H105.748V19.8384H102.852C102.047 19.8384 101.312 19.6417 100.649 19.2468C99.9835 18.852 99.4542 18.3227 99.0593 17.6576C98.6645 16.9938 98.4678 16.2579 98.4678 15.4527V12.0519Z"
            fill="white" />
        <path
            d="M111.785 7.69027H113.368V3.16443H115.842V7.69027H119.582V10.1641H115.842V16.3896C115.842 16.6556 115.945 16.8835 116.153 17.0759C116.36 17.267 116.609 17.3632 116.898 17.3632H119.582V19.837H116.862C116.221 19.837 115.637 19.6828 115.109 19.3742C114.581 19.0657 114.159 18.6511 113.842 18.1317C113.525 17.6123 113.368 17.0349 113.368 16.4023V10.1641H111.785V7.69027Z"
            fill="white" />
        <path
            d="M121.736 4.40698C121.736 4.06309 121.858 3.77014 122.1 3.52814C122.342 3.28614 122.635 3.16443 122.98 3.16443C123.326 3.16443 123.617 3.28614 123.859 3.52814C124.101 3.77014 124.223 4.06309 124.223 4.40698C124.223 4.75088 124.101 5.04383 123.859 5.28583C123.617 5.52783 123.324 5.64954 122.98 5.64954C122.636 5.64954 122.343 5.52783 122.1 5.28583C121.858 5.04383 121.736 4.75088 121.736 4.40698ZM121.736 7.69027H124.221V19.837H121.736V7.69027Z"
            fill="white" />
        <path
            d="M126.378 12.0746C126.378 11.2693 126.575 10.5348 126.97 9.86968C127.365 9.20595 127.894 8.67524 128.559 8.2804C129.223 7.88556 129.959 7.68884 130.763 7.68884H133.412C134.217 7.68884 134.952 7.88697 135.615 8.2804C136.279 8.67524 136.81 9.20453 137.205 9.86968C137.6 10.5334 137.796 11.2693 137.796 12.0746V15.4513C137.796 16.2565 137.598 16.991 137.205 17.6562C136.81 18.3199 136.281 18.8506 135.615 19.2455C134.952 19.6403 134.216 19.837 133.412 19.837H130.763C129.957 19.837 129.223 19.6403 128.559 19.2455C127.894 18.8506 127.365 18.3213 126.97 17.6562C126.575 16.9924 126.378 16.2565 126.378 15.4513V12.0746ZM128.852 15.4286C128.852 15.9607 129.04 16.415 129.415 16.7943C129.79 17.1736 130.241 17.3632 130.764 17.3632H133.413C133.946 17.3632 134.397 17.1736 134.768 16.7943C135.139 16.415 135.325 15.9593 135.325 15.4286V12.0986C135.325 11.5665 135.14 11.1122 134.768 10.733C134.397 10.3537 133.946 10.164 133.413 10.164H130.764C130.241 10.164 129.79 10.3537 129.415 10.733C129.04 11.1122 128.852 11.5679 128.852 12.0986V15.4286Z"
            fill="white" />
        <path
            d="M139.953 10.1513C139.953 9.47201 140.198 8.89036 140.686 8.4106C141.174 7.92943 141.763 7.68884 142.451 7.68884H146.731C147.536 7.68884 148.27 7.88697 148.935 8.2804C149.599 8.67524 150.13 9.20453 150.525 9.86968C150.92 10.5334 151.116 11.2693 151.116 12.0746V19.837H148.643V12.11C148.643 11.5623 148.457 11.0981 148.085 10.7146C147.714 10.331 147.263 10.14 146.731 10.14H142.427V19.837H139.953V10.1513Z"
            fill="white" />
        <path
            d="M13.6002 14.5696H10.5037C10.0395 14.5696 9.61069 14.8172 9.3786 15.2192L8.45871 16.8127C8.20256 17.2557 7.77375 17.5642 7.28409 17.6717C7.13266 17.7113 6.97699 17.7326 6.81707 17.7326H0.969419C0.43447 17.7326 0 18.167 0 18.702V22.032C0 22.5669 0.43447 23.0014 0.969419 23.0014H4.0659C4.53009 23.0014 4.9589 22.7537 5.19099 22.3518L6.11088 20.7583C6.36703 20.3153 6.79584 20.0068 7.2855 19.8993C7.43693 19.8596 7.5926 19.8384 7.75252 19.8384H13.6002C14.1351 19.8384 14.5696 19.4039 14.5696 18.869V15.539C14.5696 15.0041 14.1351 14.5696 13.6002 14.5696Z"
            fill="white" />
        <path
            d="M22.0318 0H18.9353C18.4711 0 18.0423 0.247662 17.8102 0.649582L16.8904 2.24311C16.6342 2.68607 16.2054 2.99459 15.7157 3.10214C15.5643 3.14177 15.4086 3.163 15.2487 3.163H9.40106C8.86611 3.163 8.43164 3.59746 8.43164 4.13241V7.4624C8.43164 7.99735 8.86611 8.43182 9.40106 8.43182H12.4975C12.9617 8.43182 13.3905 8.18416 13.6226 7.78224L14.5425 6.18871C14.7987 5.74575 15.2275 5.43724 15.7171 5.32968C15.8686 5.29006 16.0242 5.26883 16.1842 5.26883H22.0318C22.5668 5.26883 23.0012 4.83436 23.0012 4.29941V0.969419C23.0012 0.43447 22.5668 0 22.0318 0Z"
            fill="white" />
        <path
            d="M23.0002 22.0321V18.9356C23.0002 18.4714 22.7525 18.0426 22.3506 17.8105L20.7571 16.8906C20.3141 16.6344 20.0056 16.2056 19.898 15.716C19.8584 15.5645 19.8372 15.4089 19.8372 15.249V9.4013C19.8372 8.86635 19.4027 8.43188 18.8678 8.43188H15.5378C15.0028 8.43188 14.5684 8.86635 14.5684 9.4013V12.4978C14.5684 12.962 14.816 13.3908 15.2179 13.6229L16.8115 14.5428C17.2544 14.7989 17.5629 15.2277 17.6705 15.7174C17.7101 15.8688 17.7314 16.0245 17.7314 16.1844V22.0321C17.7314 22.567 18.1658 23.0015 18.7008 23.0015H22.0308C22.5657 23.0015 23.0002 22.567 23.0002 22.0321Z"
            fill="white" />
        <path
            d="M8.43182 13.6002V10.5037C8.43182 10.0395 8.18416 9.61069 7.78224 9.3786L6.18871 8.45871C5.74575 8.20256 5.43724 7.77375 5.32968 7.28409C5.29006 7.13266 5.26883 6.97699 5.26883 6.81707V0.969419C5.26883 0.43447 4.83436 0 4.29941 0H0.969419C0.43447 0 0 0.43447 0 0.969419V4.0659C0 4.53009 0.247662 4.9589 0.649581 5.19099L2.24311 6.11088C2.68607 6.36703 2.99458 6.79584 3.10214 7.2855C3.14177 7.43693 3.16299 7.5926 3.16299 7.75252V13.6002C3.16299 14.1351 3.59746 14.5696 4.13241 14.5696H7.4624C7.99735 14.5696 8.43182 14.1351 8.43182 13.6002Z"
            fill="white" />
    </g>
    <defs>
        <clipPath id="clip0_603_238202">
            <rect width="151.115" height="23" fill="white" />
        </clipPath>
    </defs>
</svg>