<svg width="139" height="19" viewBox="0 0 139 19" fill="none" xmlns="http://www.w3.org/2000/svg">
    <path
        d="M0.996094 13V4.46875H3.88477C4.8418 4.46875 5.57617 4.70508 6.08789 5.17773C6.60352 5.65039 6.86133 6.2793 6.86133 7.06445C6.86133 7.84961 6.60352 8.48242 6.08789 8.96289C5.57617 9.44336 4.8418 9.68359 3.88477 9.68359H2.14453V13H0.996094ZM2.14453 8.73438H3.88477C4.56055 8.73438 5.0332 8.57227 5.30273 8.24805C5.57617 7.92383 5.71289 7.5293 5.71289 7.06445C5.71289 6.59961 5.57617 6.20898 5.30273 5.89258C5.0332 5.57617 4.56055 5.41797 3.88477 5.41797H2.14453V8.73438ZM7.59961 9.97656V9.78906C7.59961 8.84766 7.87109 8.08008 8.41406 7.48633C8.95703 6.88867 9.68164 6.58984 10.5879 6.58984C11.4941 6.58984 12.2188 6.88867 12.7617 7.48633C13.3047 8.08008 13.5762 8.84766 13.5762 9.78906V9.97656C13.5762 10.918 13.3047 11.6875 12.7617 12.2852C12.2188 12.8789 11.4941 13.1758 10.5879 13.1758C9.68164 13.1758 8.95703 12.8789 8.41406 12.2852C7.87109 11.6875 7.59961 10.918 7.59961 9.97656ZM8.73633 9.78906V9.97656C8.73633 10.6133 8.89062 11.1523 9.19922 11.5938C9.51172 12.0352 9.97461 12.2559 10.5879 12.2559C11.2012 12.2559 11.6621 12.0352 11.9707 11.5938C12.2793 11.1523 12.4336 10.6133 12.4336 9.97656V9.78906C12.4336 9.14844 12.2793 8.60742 11.9707 8.16602C11.6621 7.72461 11.2012 7.50391 10.5879 7.50391C9.97461 7.50391 9.51172 7.72461 9.19922 8.16602C8.89062 8.60742 8.73633 9.14844 8.73633 9.78906ZM14.2207 6.76562H15.3047L16.459 10.832C16.5059 10.9883 16.5449 11.125 16.5762 11.2422C16.6074 11.3594 16.6367 11.4961 16.6641 11.6523H16.6992C16.7266 11.4961 16.7539 11.3594 16.7812 11.2422C16.8125 11.125 16.8555 10.9883 16.9102 10.832L18.2754 6.76562H19.2305L20.625 10.832C20.6797 10.9883 20.7207 11.125 20.748 11.2422C20.7793 11.3594 20.8086 11.4961 20.8359 11.6523H20.8711C20.8984 11.4961 20.9258 11.3594 20.9531 11.2422C20.9844 11.125 21.0215 10.9883 21.0645 10.832L22.1953 6.76562H23.2148L21.2754 13H20.3848L19.0137 8.94531C18.9629 8.78906 18.9141 8.63281 18.8672 8.47656C18.8203 8.32031 18.7773 8.16406 18.7383 8.00781H18.7031C18.6641 8.16406 18.6211 8.32031 18.5742 8.47656C18.5273 8.63281 18.4785 8.78906 18.4277 8.94531L17.0566 13H16.1602L14.2207 6.76562ZM23.8652 9.97656V9.78906C23.8652 8.84766 24.127 8.08008 24.6504 7.48633C25.1738 6.88867 25.8672 6.58984 26.7305 6.58984C27.5938 6.58984 28.2578 6.86914 28.7227 7.42773C29.1914 7.98242 29.4258 8.73438 29.4258 9.68359V10.1406H24.5508V9.25586H28.3008V9.16797C28.3008 8.69922 28.1738 8.30469 27.9199 7.98438C27.666 7.66406 27.2793 7.50391 26.7598 7.50391C26.1777 7.50391 25.7383 7.72461 25.4414 8.16602C25.1484 8.60742 25.002 9.14844 25.002 9.78906V9.97656C25.002 10.6172 25.1562 11.1582 25.4648 11.5996C25.7773 12.041 26.2598 12.2617 26.9121 12.2617C27.3145 12.2617 27.6602 12.1758 27.9492 12.0039C28.2383 11.832 28.4727 11.6289 28.6523 11.3945L29.373 11.9746C29.1738 12.2676 28.8633 12.541 28.4414 12.7949C28.0234 13.0488 27.5137 13.1758 26.9121 13.1758C25.9277 13.1758 25.1738 12.8789 24.6504 12.2852C24.127 11.6875 23.8652 10.918 23.8652 9.97656ZM30.7617 13V6.76562H31.7695L31.8164 7.56836H31.8516C32.0117 7.30664 32.2227 7.07812 32.4844 6.88281C32.75 6.6875 33.0645 6.58984 33.4277 6.58984C33.5137 6.58984 33.6035 6.59961 33.6973 6.61914C33.7949 6.63867 33.8633 6.65625 33.9023 6.67188V7.70898C33.8242 7.69336 33.7402 7.68164 33.6504 7.67383C33.5645 7.66602 33.4688 7.66211 33.3633 7.66211C33 7.66211 32.6914 7.75586 32.4375 7.94336C32.1836 8.13086 31.9961 8.36133 31.875 8.63477V13H30.7617ZM34.459 9.97656V9.78906C34.459 8.84766 34.7207 8.08008 35.2441 7.48633C35.7676 6.88867 36.4609 6.58984 37.3242 6.58984C38.1875 6.58984 38.8516 6.86914 39.3164 7.42773C39.7852 7.98242 40.0195 8.73438 40.0195 9.68359V10.1406H35.1445V9.25586H38.8945V9.16797C38.8945 8.69922 38.7676 8.30469 38.5137 7.98438C38.2598 7.66406 37.873 7.50391 37.3535 7.50391C36.7715 7.50391 36.332 7.72461 36.0352 8.16602C35.7422 8.60742 35.5957 9.14844 35.5957 9.78906V9.97656C35.5957 10.6172 35.75 11.1582 36.0586 11.5996C36.3711 12.041 36.8535 12.2617 37.5059 12.2617C37.9082 12.2617 38.2539 12.1758 38.543 12.0039C38.832 11.832 39.0664 11.6289 39.2461 11.3945L39.9668 11.9746C39.7676 12.2676 39.457 12.541 39.0352 12.7949C38.6172 13.0488 38.1074 13.1758 37.5059 13.1758C36.5215 13.1758 35.7676 12.8789 35.2441 12.2852C34.7207 11.6875 34.459 10.918 34.459 9.97656ZM40.9863 9.97656V9.78906C40.9863 8.87891 41.2266 8.12891 41.707 7.53906C42.1875 6.94531 42.8301 6.64844 43.6348 6.64844C44.0762 6.64844 44.4531 6.72656 44.7656 6.88281C45.082 7.03516 45.332 7.24023 45.5156 7.49805V4H46.6289V13H45.6211L45.5742 12.1855H45.5391C45.3789 12.4434 45.1309 12.6641 44.7949 12.8477C44.4629 13.0273 44.0762 13.1172 43.6348 13.1172C42.8301 13.1172 42.1875 12.8203 41.707 12.2266C41.2266 11.6328 40.9863 10.8828 40.9863 9.97656ZM42.123 9.97656C42.123 10.6016 42.2637 11.1289 42.5449 11.5586C42.8301 11.9844 43.2734 12.1973 43.875 12.1973C44.2812 12.1973 44.625 12.0898 44.9062 11.875C45.1875 11.6562 45.3906 11.4102 45.5156 11.1367V8.62891C45.3906 8.35156 45.1875 8.10547 44.9062 7.89062C44.625 7.67188 44.2812 7.5625 43.875 7.5625C43.2734 7.5625 42.8301 7.77734 42.5449 8.20703C42.2637 8.63281 42.123 9.16016 42.123 9.78906V9.97656ZM51.293 13V4H52.4062V7.49805C52.5938 7.24023 52.8438 7.03516 53.1562 6.88281C53.4688 6.72656 53.8477 6.64844 54.293 6.64844C55.0938 6.64844 55.7344 6.94531 56.2148 7.53906C56.6953 8.12891 56.9355 8.87891 56.9355 9.78906V9.97656C56.9355 10.8828 56.6953 11.6328 56.2148 12.2266C55.7344 12.8203 55.0938 13.1172 54.293 13.1172C53.8477 13.1172 53.457 13.0273 53.1211 12.8477C52.7891 12.6641 52.543 12.4434 52.3828 12.1855H52.3477L52.3008 13H51.293ZM52.4062 11.1367C52.5312 11.4102 52.7344 11.6562 53.0156 11.875C53.3008 12.0898 53.6445 12.1973 54.0469 12.1973C54.6523 12.1973 55.0957 11.9844 55.377 11.5586C55.6582 11.1289 55.7988 10.6016 55.7988 9.97656V9.78906C55.7988 9.16016 55.6582 8.63281 55.377 8.20703C55.0957 7.77734 54.6523 7.5625 54.0469 7.5625C53.6445 7.5625 53.3008 7.67188 53.0156 7.89062C52.7344 8.10547 52.5312 8.35156 52.4062 8.62891V11.1367ZM57.668 15.4375V14.4883C57.7734 14.5195 57.8887 14.5449 58.0137 14.5645C58.1426 14.584 58.2676 14.5938 58.3887 14.5938C58.6699 14.5938 58.9102 14.5 59.1094 14.3125C59.3086 14.1289 59.5293 13.6797 59.7715 12.9648V12.959L57.4219 6.76562H58.5117L60.0059 10.8496C60.0605 11.0059 60.1094 11.1562 60.1523 11.3008C60.1992 11.4414 60.2383 11.5762 60.2695 11.7051H60.3047C60.3359 11.5762 60.375 11.4414 60.4219 11.3008C60.4727 11.1562 60.5234 11.0059 60.5742 10.8496L61.9688 6.76562H63.0234L60.4629 13.8203C60.2598 14.3672 59.9922 14.793 59.6602 15.0977C59.332 15.4023 58.9277 15.5547 58.4473 15.5547C58.2871 15.5547 58.1445 15.5449 58.0195 15.5254C57.8984 15.5059 57.7812 15.4766 57.668 15.4375Z"
        fill="#8F8F8F" fill-opacity="0.7" />
    <path
        d="M114.649 9.36836L117.186 6.92639L116.223 6L114.168 7.97876L112.113 6L111.151 6.92639L113.687 9.36836C113.82 9.49628 113.994 9.56022 114.168 9.56022C114.342 9.56022 114.517 9.4963 114.649 9.36836ZM118.321 11.9771L116.266 9.99832L118.321 8.01952L117.359 7.09312L114.823 9.53512C114.557 9.79094 114.557 10.2057 114.823 10.4615L117.359 12.9035L118.321 11.9771ZM114.165 12.0212L116.22 14L117.182 13.0736L114.646 10.6316C114.38 10.3758 113.949 10.3758 113.684 10.6316L111.148 13.0736L112.11 14L114.165 12.0212ZM113.511 10.4649C113.638 10.3421 113.71 10.1754 113.71 10.0017C113.71 9.82798 113.638 9.66136 113.511 9.53852L110.974 7.09654L110.012 8.02294L112.067 10.0017L110.012 11.9805L110.974 12.9069L113.511 10.4649ZM109.978 13.6787H107.845L107.692 12.7448H106.301L106.133 13.6787H104L105.836 6.32134H108.36L109.978 13.6787ZM107.449 11.1675L107.316 10.3098C107.312 10.3067 107.306 10.2637 107.296 10.1809C107.289 10.1114 107.255 9.8349 107.192 9.35216C107.185 9.29806 107.177 9.22424 107.167 9.1305C107.157 9.03676 107.144 8.91824 107.128 8.77528L107.063 8.07988C107.057 8.14666 107.048 8.22126 107.036 8.30386C107.024 8.38648 107.012 8.47688 106.999 8.5755C106.976 8.77236 106.959 8.90906 106.949 8.98522C106.939 9.06118 106.933 9.10746 106.93 9.12348L106.786 10.0142L106.578 11.1675H107.449ZM122.725 13.6787V11.911H120.954V10.7863H122.542V9.12354H120.954V8.05142H122.725V6.32142H118.89V13.6786L122.725 13.6787ZM126.784 11.911H125.235V6.32142H123.171V13.6786H126.784V11.911ZM133.121 13.6787H130.988L130.835 12.7448H129.444L129.276 13.6787H127.143L128.979 6.32134H131.503L133.121 13.6787ZM130.592 11.1675L130.458 10.3098C130.455 10.3067 130.449 10.2638 130.439 10.181C130.432 10.1114 130.397 9.83492 130.335 9.35218C130.328 9.29808 130.32 9.22426 130.31 9.13052C130.3 9.03678 130.287 8.91826 130.271 8.7753L130.206 8.0799C130.199 8.14668 130.19 8.22128 130.179 8.30388C130.167 8.3865 130.155 8.4769 130.142 8.57552C130.119 8.77238 130.102 8.90908 130.092 8.98524C130.082 9.0612 130.076 9.10748 130.073 9.1235L129.929 10.0142L129.721 11.1675H130.592ZM139 13.6787H136.768L135.749 11.058C135.739 11.0135 135.721 10.9547 135.697 10.8816C135.672 10.8086 135.642 10.7213 135.605 10.6196L135.62 11.1056V13.6787H133.566V6.32134H135.68C136.61 6.32134 137.306 6.49788 137.768 6.85056C138.355 7.30167 138.649 7.94337 138.649 8.77528C138.649 9.665 138.254 10.2798 137.466 10.6195L139 13.6787ZM136.6 8.79912C136.6 8.2498 136.301 7.97503 135.704 7.97503H135.63V9.7283H135.769C136.006 9.7283 136.204 9.6412 136.363 9.46622C136.521 9.29184 136.6 9.0694 136.6 8.79912Z"
        fill="#8F8F8F" fill-opacity="0.7" />
    <path
        d="M70.1105 15.2659C69.839 15.2659 69.5699 15.1894 69.3325 15.0449C69.0877 14.896 68.875 14.6734 68.7176 14.4012C68.483 13.9956 68.3774 13.4775 68.4281 12.9799C68.4824 12.447 68.2512 12.0602 68.1085 11.877C68.0533 11.8061 67.9914 11.7384 67.9314 11.6729C67.8194 11.5505 67.7035 11.424 67.6331 11.2765C67.5795 11.1644 67.5629 11.0323 67.5876 10.914C67.614 10.7873 67.6855 10.6923 67.789 10.6462C67.8349 10.6258 67.8844 10.6154 67.9358 10.6154C68.1381 10.6154 68.3411 10.7734 68.4636 10.9213C68.7286 11.2411 68.8961 11.571 68.9616 11.9018C69 12.0962 69.0096 12.2706 69.0188 12.4391C69.0408 12.8422 69.0599 13.1903 69.4827 13.5764C69.7488 13.8194 70.0859 13.9587 70.4074 13.9587C70.7915 13.9587 71.1457 13.7736 71.4604 13.4087C71.7284 13.0979 71.8758 12.7039 71.8986 12.2376C71.9178 11.8437 71.8451 11.4026 71.6883 10.9621C71.4396 10.2633 70.9572 9.63333 70.1703 8.97951C70.0736 8.89917 69.9737 8.81896 69.877 8.74144C69.5717 8.49647 69.2558 8.24318 68.9978 7.94831C68.6115 7.50685 68.3538 7.07344 68.232 6.65999C68.1281 6.30794 68.1223 5.97074 68.2145 5.65771C68.3841 5.08256 68.8634 4.68791 69.237 4.56472C69.3724 4.52008 69.5062 4.49756 69.6351 4.49756C69.9132 4.49756 70.1607 4.59926 70.3707 4.79998C70.6164 5.03472 70.7747 5.36949 70.8165 5.74265C70.8216 5.78806 70.8265 5.83334 70.8313 5.8785C70.8802 6.33046 70.9263 6.75747 71.1438 7.1745C71.1651 7.21505 71.1924 7.26187 71.2242 7.31611C71.3538 7.53742 71.5498 7.87194 71.4712 8.09338C71.4421 8.17538 71.3791 8.23576 71.2785 8.27797C71.2185 8.30317 71.1588 8.31597 71.1012 8.31597C70.9223 8.31597 70.7597 8.19226 70.655 7.97646C70.4834 7.62249 70.4469 7.26123 70.4083 6.87861C70.3886 6.68404 70.3682 6.48281 70.3283 6.28479C70.2829 6.05951 70.1436 5.92507 69.9558 5.92507C69.8393 5.92507 69.7207 5.97815 69.6302 6.07077C69.5214 6.18232 69.4688 6.33327 69.4824 6.49574C69.5252 7.00615 69.8397 7.45158 70.1733 7.8571C70.7468 8.55429 71.1515 9.23523 71.58 9.95633L71.5988 9.98806C71.8699 10.4442 72.0506 10.8888 72.1508 11.3471C72.3086 12.0684 72.2621 12.8072 72.0125 13.5435C71.8241 14.0992 71.5369 14.5511 71.1821 14.8505C70.8599 15.1223 70.489 15.2659 70.1105 15.2659Z"
        fill="#8F8F8F" fill-opacity="0.7" />
    <path
        d="M80.9546 6.2588C80.8418 6.2588 80.7312 6.21544 80.6349 6.13356C80.4988 6.01792 80.4188 5.83 80.4209 5.63108C80.4227 5.46247 80.4791 5.28121 80.5885 5.09213C80.7234 4.85919 80.899 4.68559 81.0966 4.59016C81.2109 4.53503 81.3374 4.50586 81.4626 4.50586C81.5879 4.50586 81.703 4.53528 81.7993 4.59093C82.0155 4.71591 82.1144 4.98071 82.0195 5.1813C81.9584 5.31088 81.8541 5.36551 81.7435 5.42346C81.6779 5.45787 81.6102 5.4933 81.5476 5.54575C81.4307 5.64374 81.4218 5.70336 81.4083 5.79354C81.4036 5.82424 81.3984 5.85917 81.388 5.90138C81.3351 6.11514 81.1611 6.2588 80.9546 6.2588Z"
        fill="#8F8F8F" fill-opacity="0.7" />
    <path
        d="M81.3868 15.27C81.3308 15.27 81.2765 15.2595 81.2252 15.239C81.1005 15.1886 81.0114 15.0789 80.9743 14.93C80.9398 14.7913 80.9533 14.6348 81.0115 14.5003C81.0942 14.3089 81.2305 14.1426 81.3625 13.9818C81.4899 13.8265 81.6216 13.6659 81.7085 13.4803C82.0521 12.7455 82.0703 11.9185 81.7596 11.1514C81.7238 11.0629 81.6873 10.9741 81.6507 10.8854C81.3585 10.1762 81.0564 9.44276 81.0549 8.66818C81.0535 8.00771 81.2719 7.37679 81.6865 6.84385C81.8289 6.6608 82.0676 6.46533 82.3108 6.46533C82.367 6.46533 82.4216 6.47607 82.473 6.49718C82.7402 6.60681 82.7969 6.96845 82.6821 7.23735C82.6292 7.36131 82.5311 7.48974 82.4174 7.63839C81.9736 8.21878 81.3033 9.09583 82.0974 11.2457C82.1976 11.5171 82.3809 12.1677 82.4322 12.8847C82.4933 13.7402 82.3472 14.433 82.0097 14.8882C81.8789 15.0645 81.6372 15.27 81.3868 15.27Z"
        fill="#8F8F8F" fill-opacity="0.7" />
    <path
        d="M73.9209 15.2769C73.775 15.2769 73.5531 15.194 73.3239 14.799C73.0125 14.2623 72.869 13.5408 72.9584 12.9609C73.0767 12.1934 73.3058 11.5771 73.6795 11.0211C74.0128 10.5253 74.4193 10.1391 74.8496 9.73023C75.0186 9.56981 75.1933 9.40389 75.3665 9.22812C75.4789 9.11402 75.8442 8.7227 75.82 8.48156C75.8143 8.42438 75.7874 8.37871 75.7402 8.34622C75.7118 8.32652 75.6825 8.31654 75.6533 8.31654C75.5649 8.31654 75.4894 8.40481 75.3938 8.51636C75.2988 8.62739 75.1803 8.76555 75.0108 8.86559C74.8333 8.97049 74.5688 9.03304 74.3034 9.03304C74.0688 9.03304 73.7212 8.98392 73.3968 8.74969C73.0743 8.51674 72.8444 8.15267 72.7137 7.66732C72.5521 7.06736 72.5626 6.42314 72.7425 5.8998C72.8497 5.58792 73.0151 5.31966 73.234 5.10245C73.4798 4.85863 73.7942 4.67889 74.1685 4.56811C74.2919 4.53152 74.4366 4.51221 74.5866 4.51221C74.8315 4.51221 75.312 4.56657 75.7781 4.93077C76.2325 5.28576 76.5526 5.83532 76.7299 6.56398C76.8052 6.87381 76.879 7.24735 76.8545 7.66835C76.8239 8.19795 76.6403 8.67741 76.3087 9.09304C76.093 9.3636 75.759 9.59424 75.4055 9.83845C74.976 10.1352 74.4889 10.4715 74.1416 10.9394C73.7432 11.4757 73.5853 12.1072 73.6588 12.8696C73.7047 13.3456 74.0247 13.886 74.1967 14.1762C74.2335 14.2384 74.2627 14.2876 74.2784 14.3185C74.3137 14.3879 74.3961 14.5704 74.401 14.7619C74.4065 14.9824 74.308 15.141 74.1079 15.2333C74.0455 15.262 73.9824 15.2769 73.9209 15.2769ZM74.1739 5.378C73.9408 5.378 73.7047 5.49185 73.542 5.68271C73.3906 5.86027 73.2978 6.10486 73.2735 6.39C73.2537 6.62142 73.2829 6.82418 73.3603 6.9924C73.4534 7.19516 73.6258 7.35174 73.8212 7.41135C73.8863 7.43118 73.9499 7.44115 74.0108 7.44115C74.1521 7.44115 74.2792 7.38564 74.3687 7.28458C74.4793 7.15985 74.5247 6.97526 74.4904 6.79079C74.4633 6.64547 74.468 6.56065 74.5083 6.46663C74.5237 6.43081 74.5452 6.39154 74.5742 6.34676C74.5904 6.32182 74.6078 6.29662 74.6247 6.27244C74.7004 6.16332 74.7786 6.05036 74.7786 5.9053C74.7786 5.65227 74.5447 5.41791 74.2577 5.38299C74.2301 5.37966 74.202 5.378 74.1739 5.378Z"
        fill="#8F8F8F" fill-opacity="0.7" />
    <path
        d="M85.3392 15.2768C85.1891 15.2768 85.0446 15.2575 84.9211 15.2209C84.5468 15.1101 84.2325 14.9304 83.9867 14.6866C83.7678 14.4693 83.6024 14.2011 83.4952 13.8892C83.3153 13.3659 83.3047 12.7216 83.4663 12.1216C83.5971 11.6363 83.8269 11.2721 84.1494 11.0393C84.4738 10.805 84.8216 10.7559 85.0561 10.7559C85.3215 10.7559 85.5861 10.8185 85.7635 10.9234C85.933 11.0235 86.0515 11.1616 86.1465 11.2726C86.2422 11.3843 86.3176 11.4724 86.406 11.4724C86.4353 11.4724 86.4645 11.4624 86.4929 11.4427C86.5401 11.4101 86.5669 11.3646 86.5727 11.3074C86.5969 11.0661 86.2316 10.6749 86.1192 10.5608C85.946 10.3851 85.7713 10.2192 85.6023 10.0587C85.172 9.64989 84.7653 9.26382 84.4322 8.76799C84.0586 8.21203 83.8294 7.59556 83.7111 6.82815C83.6217 6.24827 83.7652 5.5269 84.0766 4.99014C84.3058 4.59511 84.5278 4.51221 84.6735 4.51221C84.7351 4.51221 84.7979 4.52679 84.8603 4.55558C85.0605 4.64781 85.159 4.80644 85.1534 5.02698C85.1486 5.21861 85.0661 5.4009 85.0308 5.47036C85.0177 5.49607 84.9966 5.53394 84.9698 5.58204C84.8172 5.8558 84.4994 6.42531 84.4518 6.91923C84.3781 7.6837 84.533 8.31616 84.9254 8.85293C85.2677 9.32126 85.7486 9.65795 86.1728 9.95499C86.5193 10.1977 86.8467 10.4269 87.0611 10.6958C87.3925 11.1115 87.5761 11.5909 87.6068 12.1205C87.6313 12.5416 87.5575 12.915 87.4822 13.2249C87.3049 13.9536 86.9847 14.5031 86.5304 14.8581C86.0645 15.2222 85.5842 15.2768 85.3392 15.2768ZM84.7638 12.3479C84.7029 12.3479 84.6391 12.358 84.5742 12.3777C84.3786 12.4374 84.2064 12.5939 84.1132 12.7967C84.0359 12.9649 84.0066 13.1677 84.0265 13.3991C84.0507 13.6843 84.1435 13.9287 84.2949 14.1064C84.4576 14.2973 84.6939 14.4111 84.9268 14.4111C84.955 14.4111 84.9832 14.4095 85.0106 14.406C85.2978 14.371 85.5314 14.1367 85.5315 13.8837C85.5315 13.7386 85.4533 13.6257 85.3776 13.5166C85.3608 13.4923 85.3435 13.4672 85.3273 13.4421C85.2983 13.3973 85.2767 13.3582 85.2612 13.3222C85.2209 13.2282 85.2163 13.1434 85.2433 12.998C85.2777 12.8136 85.2323 12.629 85.1216 12.5043C85.0321 12.4033 84.905 12.3479 84.7638 12.3479Z"
        fill="#8F8F8F" fill-opacity="0.7" />
    <path
        d="M77.7751 15.2656C77.2774 15.2656 76.8125 15.0848 76.4995 14.7696C76.0455 14.3122 75.7326 13.6582 75.641 12.9751C75.54 12.2218 75.542 11.548 75.6465 10.9155C75.6804 10.7118 75.7555 10.521 75.8581 10.3784C75.9806 10.2081 76.1319 10.1159 76.3079 10.1043C76.3242 10.1032 76.3405 10.1026 76.3563 10.1026C76.5234 10.1026 76.6608 10.163 76.7646 10.2819C76.9636 10.5098 76.9959 10.8998 76.9418 11.1656C76.9061 11.3411 76.854 11.5222 76.8034 11.6972C76.6771 12.1352 76.5465 12.588 76.6387 13.0425C76.7031 13.36 76.9005 13.6814 77.1415 13.8617C77.2936 13.9753 77.5104 14.0493 77.7073 14.055C77.7251 14.0555 77.7427 14.0557 77.7603 14.0557C78.0545 14.0557 78.3303 13.9845 78.5802 13.844C78.8032 13.7187 79.0067 13.5376 79.1848 13.306C79.5877 12.7821 79.7531 12.1523 79.8157 11.8237C79.9599 11.0673 79.8932 10.3923 79.6056 9.6995C79.4704 9.37355 79.2294 8.99157 78.9966 8.62213C78.8193 8.34082 78.6517 8.07525 78.5341 7.84166C78.3849 7.54539 78.2904 7.27969 78.3142 6.94594C78.3226 6.82889 78.3854 6.44678 78.8393 6.44678C78.8462 6.44678 78.8534 6.44678 78.8604 6.44704C79.0113 6.45087 79.136 6.51906 79.2209 6.6443C79.3035 6.76608 79.3463 6.93481 79.3444 7.1322C79.3419 7.37794 79.3628 7.66858 79.3984 7.89053C79.4552 8.24347 79.5506 8.5455 79.6518 8.86518C79.6861 8.97392 79.7218 9.08636 79.7565 9.20303C79.8355 9.46873 79.919 9.73788 79.9998 9.99821C80.0459 10.1471 80.0921 10.296 80.1377 10.4452C80.3897 11.2685 80.4032 12.2062 80.175 13.0176C79.9151 13.9414 79.3517 14.7029 78.6678 15.0548C78.4001 15.1926 78.0911 15.2656 77.7751 15.2656Z"
        fill="#8F8F8F" fill-opacity="0.7" />
    <path
        d="M96.176 7.868V10.436H98.756V11.444H96.176V14H95.18V11.444H92.612V10.436H95.18V7.868H96.176Z"
        fill="#8F8F8F" fill-opacity="0.7" />
</svg>